

-----------------------------------------------------
FOREPLAY_MIDI = [[4D546864000000060001000B00604D54726B0000000C00FF58040402180800FF2F004D54726B000001BF00FF510307B32900FF5103051E1381C108FF5103051E130FFF51030525700EFF5103052CE30EFF510305346B0FFF5103053C090EFF51030543BE0EFF5103054B890FFF510305536C0EFF5103055B660EFF51030563790FFF5103056BA40EFF51030573E70EFF5103057C440FFF51030584BB0EFF5103058D4C0EFF51030595F80FFF5103059EC00EFF510305A7A30EFF510305B0A20FFF510305B9BE0EFF510305C2F70EFF510305CC4F0EFF510305D5C40FFF510305DF590EFF510305E90E0EFF510305F2E20FFF510305FCD80EFF51030606F00EFF51030611290FFF5103061B860EFF51030626060EFF51030630AA0FFF5103063B740EFF51030646630EFF51030651790FFF5103065CB60EFF510306681C0EFF51030673AB0FFF5103067F640EFF5103068B480EFF51030697570EFF510306A3940FFF510306AFFE0EFF510306BC970EFF510306C95F0FFF510306D6590EFF510306E3840EFF510306F0E30FFF510306FE760EFF5103070C3F0EFF5103071A3E0FFF51030728750EFF51030736E60EFF51030745910FFF51030754790EFF510307639E0EFF51030773020FFF51030782A70EFF510307928E0EFF510307A2B90AFF510307B32900FF2F004D54726B0000099500FF030F41636F75737469632047756974617200B40A4000B4076400E4004000B4650000B4640000B4060C00B40A4000B4076400E4004000B4650000B4640000B4060C00B40A4000B4076400E4004000B4650000B4640000B4060C00B40A4000B4076400E4004081D801E4004003E4064002E40D4003E4144002E41B4003E4224002E4284003E42F4002E4364003E43D4002E4444003E44B4002E4514003E4584002E45F4003E4664002E46D4003E4744002E47A4003E4014102E4084103E40F4102E4164103E41D4102E4234103E42A4102E4314103E4384102E43F4103E4454102E44C4103E4534102E45A4103E4614102E4684103E46E4102E4754103E47C4102E4034203E40A4202E4114203E4174202E41E4203E4254202E42C4203E4334202E43A4203E4404202E4474203E44E4202E4554203E45C4202E4624203E4694202E4704203E4774202E47E4203E4054302E40B4303E4124302E4194303E4204302E4274303E42E4302E4344303E43B4302E4424303E4494302E4504303E4574302E45D4303E464430DE457438441E4004081927F944164248441400C94416418844140189441640484414014944164048441401494416404844140149441640484414014943F6424843F400C943F6418843F4018943F6404843F4014943F6404843F4014943F6404843F4014943F6404843F4014943F6424843F400C943A6424843A400C943A6404843A4014943A6404843A4014943A6454843A400C943A6424843A400C943A6404843A4014943A6404843A4014943A6404843A4014943A6404843A4014944164248441400C94416418844140189441640484414014944164048441401494416404844140149441640484414014943F6424843F400C943F6418843F4018943F6404843F4014943F6404843F4014943F6404843F4014943F6404843F4014943F6424843F400C943A6424843A400C943A6404843A4014943A6404843A4014943A6454843A400C943A6424843A400C943A6404843A4014943A6404843A4014943A6404843A4014943A6404843A4014944164248441400C94416418844140189441640484414014944164048441401494416404844140149441640484414014943F6424843F400C943F6418843F4018943F6404843F4014943F6404843F4014943F6404843F4014943F6404843F4014943F6424843F400C943A6424843A400C943A6404843A4014943A6404843A4014943A6454843A400C943A6424843A400C943A6404843A4014943A6404843A4014943A6404843A4014943A6404843A4014944164248441400C94416418844140189441640484414014944164048441401494416404844140149441640484414014943F6424843F400C943F6418843F4018943F6404843F4014943F6404843F4014943F6404843F4014943F6404843F4014943F6424843F400C943A6424843A400C943A6404843A4014943A6404843A4014943A6454843A400C943A6424843A400C943A6404843A4014943A6404843A4014943A6404843A4014943A6404843A4014944164248441400C94416418844140189441640484414014944164048441401494416404844140149441640484414014943F6424843F400C943F6418843F4018943F6404843F4014943F6404843F4014943F6404843F4014943F6404843F4014943F6424843F400C943A6424843A400C943A6404843A4014943A6404843A4014943A6454843A400C943A6424843A400C943A6404843A4014943A6404843A4014943A6404843A4014943A6404843A4014944164248441400C94416418844140189441640484414014944164048441401494416404844140149441640484414014943F6424843F400C943F6418843F4018943F6404843F4014943F6404843F4014943F6404843F4014943F6404843F4014943E648300843E40DD00944164248441400C94416418844140189441640484414014944164048441401494416404844140149441640484414014943F6424843F400C943F6418843F4018943F6404843F4014943F6404843F4014943F6404843F4014943F6404843F4014943F6424843F400C943A6424843A400C943A6404843A4014943A6404843A4014943A6454843A400C943A6424843A400C943A6404843A4014943A6404843A4014943A6404843A4014943A6404843A4014944164248441400C94416418844140189441640484414014944164048441401494416404844140149441640484414014943F6424843F400C943F6418843F4018943F6404843F4014943F6404843F4014943F6404843F4014943F6404843F4014943F6424843F400C943A6424843A400C943A6404843A4014943A6404843A4014943A6454843A400C943A6424843A400C943A6404843A4014943A6404843A4014943A6404843A4014943A6404843A4014944164248441400C94416418844140189441640484414014944164048441401494416404844140149441640484414014943F6424843F400C943F6418843F4018943F6404843F4014943F6404843F4014943F6404843F4014943F6404843F4014943F6424843F400C943A6424843A400C943A6404843A4014943A6404843A4014943A6454843A400C943A6424843A400C943A6404843A4014943A6404843A4014943A6404843A4014943A6404843A4014944164248441400C94416418844140189441640484414014944164048441401494416404844140149441640484414014943F6424843F400C943F6418843F4018943F6404843F4014943F6404843F4014943F6404843F4014943F6404843F4014943F6424843F400C943A6424843A400C943A6404843A4014943A6404843A4014943A6454843A400C943A6424843A400C943A6404843A4014943A6404843A4014943A6404843A4014943A6404843A4014944164248441400C94416418844140189441640484414014944164048441401494416404844140149441640484414014943F6424843F400C943F6418843F4018943F6404843F4014943F6404843F4014943F6404843F4014943F6404843F4014943F6424843F400C943A6424843A400C943A6404843A4014943A6404843A4014943A6454843A400C943A6424843A400C943A6404843A4014943A6404843A4014943A6404843A4014943A6404843A4014944164248441400C94416418844140189441640484414014944164048441401494416404844140149441640484414014943F6424843F400C943F6418843F4018943F6404843F4014943F6404843F4014943F6404843F4014943F6404843F4014943E648300843E40848970B4650000B4640000B4060C00B40A4000B4076400E4004002B4650000B4640000B4060C00B40A4000B4076400E4004000B4650000B4640000B4060C00B40A4000B4076400E4004000FF2F004D54726B00007D4100FF030F456C6563747269632047756974617200B30A4000B3076400E34B4000B3650000B3640000B3060C00B30A4000B3076400E34B4000B3650000B3640000B3060C00B30A4000B3076400E34B4000B3650000B3640000B3060C00B30A4000B3076400E34B409B00932E643C832E408244932E643C832E408244932E648C00832E409800933A645C833A4004933C645C833C4004933D645C833D4004933C645C833C4004933A645C833A40049338645C833840049337645C833740049335645C83354004933C645C833C4004933D645C833D4004933A645C833A4004933F645C833F4004934164827C83414004933A645C833A4004933C645C833C4004933A645C833A4004933C645C833C4004933D645C833D40049338645C83384004933D645C833D40049338645C83384004933D645C833D40049338645C83384004933A645C833A40049335645C833540049336645C833640049335645C833540049336645C833640049333645C83334004933A64821C833A40049338645C83384004933D64821C833D40049338645C83384004933A64821C833A4004933C645C833C4004933D64821C833D40049338645C83384004933A645C833A40049338645C83384004933D645C833D40049338645C83384004933A645C833A4004933C645C833C4004933D645C833D40049338645C83384004933A645C833A40049338645C833840049336645C833640049338645C833840049341645C834140049340645C834040049341645C834140049340645C83404004933A64827C833A4004933A648540833A408F40933A645C833A4004933C645C833C4004933D645C833D4004933C645C833C4004933A645C833A40049338645C833840049337645C833740049335645C83354004933C645C833C4004933D645C833D4004933A645C833A4004933F645C833F4004934164827C83414004933A645C833A4004933C645C833C4004933A645C833A4004933C645C833C4004933D645C833D40049338645C83384004933D645C833D40049338645C83384004933D645C833D40049338645C83384004933A645C833A40049335645C833540049336645C833640049335645C833540049336645C833640049333645C83334004933A64821C833A40049338645C83384004933D64821C833D40049338645C83384004933A64821C833A4004933C645C833C4004933D64821C833D40049338645C83384004933A645C833A40049338645C83384004933D645C833D40049338645C83384004933A645C833A4004933C645C833C4004933D645C833D40049338645C83384004933A645C833A40049338645C833840049336645C833640049338645C833840049341645C834140049340645C834040049341645C834140049340645C83404004933A64827C833A4004933A648540833A4010933C649218833C4018933C648600833C400093306402E3004001E3224001E32F4001E33D4001E3744001E31D4101E3314101E33F4101E3454101E3614102E37C4101E3114201E3254201E32C4201E3404201E3554201E3704201E37E4201E3054301E3344302E3424301E35D4301E3724301E3004401E3144401E3224401E32F4401E3364401E3444401E35F4401E3664401E3014501E3164501E3314501E3614501E3114601E31E4601E3474601E3624601E3704601E3054701E3274702E32F4001E3444001E3514001E3014101E3084101E30F4101E31D4101E3234101E34C4101E3534101E36E4101E37C4101E3114202E31E4201E3334201E3404201E34E4201E3554201E3704202E37E4201E3124301E3204302E3344301E3504301E3644301E3724301E3144401E3224401E3444402E3744401E30F4501E3234501E33F4501E3454501E3754501E3114601E3254601E3404601E3474601E3774601E3274701E3733F01E3004002E3144001E3224001E33D4001E3444001E35F4002E3014101E3234101E3314101E3614101E3034201E3404202E3704201E32E4301E3644301E3004401E3224401E3364402E35F4401E3744401E3014501E3164501E3234501E33F4501E3534501E36E4502E3114601E31E4601E3404601E3474601E3624601E3774601E3054701E3204701E3344702E3424702E3644706E36C3F01E3733F01E3004001E3144001E3224001E32F4001E3514001E36D4001E3744001E31D4101E3234101E3314101E33F4101E3534101E36E4101E37C4101E31E4201E3254201E3704201E3774201E3124302E3424301E3644301E3004401E3144401E3224401E35F4401E3744401E3014501E3164501E3454502E3614501E3754501E3034601E3334602E3554601E3704601E3124701E3274701E3504701E3574701E3004802E36C3F03E3733F01E37A3F01E30D4001E3144002E3224001E33D4001E3444001E34B4001E3514001E36D4001E3744002E30F4101E31D4101E3234101E33F4101E3534101E3614101E3684101E36E4101E3034201E31E4201E3334201E3554201E3694201E3054301E3204301E3344301E3424301E35D4301E3644301E35F4401E3314501E3254601E3554601E3124702E3344701E3424701E3504701E3004805E3004001E3064001E30D4001E33D4003E36D4001E3744001E3234101E3314101E36E4102E3114201E3254201E3334201E37E4201E32E4301E3644301E32F4401E3444401E30F4501E3234501E33F4501E3454501E3614501E3754501E3034601E31E4601E3334601E3404602E3554601E3624601E3054701E3204701E3344701E3424701E3504701E3574701E3644701E36B4701E3724701E3004801E3144801E32F4801E3364802E3004003E3064002E30D4001E3224001E33D4003E3444001E3514001E35F4001E36D4001E3744001E30F4101E31D4101E3314101E34E4201E3554201E37E4201E3054301E3204301E3424301E35D4301E3644301E3004401E3224401E3364401E3514401E3014501E30F4501E3234501E33F4501E3454501E3614501E36E4502E3034603E3254601E3474601E3554601E3124701E3644701E3724701E3064801E32F4802E3364802E30D4001E3224001E33D4001E3444001E3514001E36D4001E3014101E3084101E30F4101E3314101E33F4101E3614101E36E4101E3114201E3404203E3554201E3054301E3194301E35D4301E30D4401E3224401E3444401E35F4401E3744401E3014501E3084501E30F4501E3164501E33F4501E3454501E3534501E3754501E3404601E3624601E3774601E3124701E3504701E3574701E3644701E3724701E3004802E3064801E3224801E32F4804E3004001E3224001E32F4001E33D4001E3744001E31D4101E3314101E33F4101E3454101E3614102E37C4101E3114201E3254201E32C4201E3404201E3554201E3704201E37E4201E3054301E3344302E3424301E35D4301E3724301E3004401E3144401E3224401E32F4401E3364401E3444401E35F4401E3664401E3014501E3164501E3314501E3614501E3114601E31E4601E3474601E3624601E3704601E3054701E3274702E32F4001E3444001E3514001E3014101E3084101E30F4101E31D4101E3234101E34C4101E3534101E36E4101E37C4101E3114202E31E4201E3334201E3404201E34E4201E3554201E3704202E37E4201E3124301E3204302E3344301E3504301E3644301E3724301E3144401E3224401E3444402E3744401E30F4501E3234501E33F4501E3454501E3754501E3114601E3254601E3404601E3474601E3774601E3274701E3733F01E3004002E3144001E3224001E33D4001E3444001E35F4002E3014101E3234101E3314101E3614101E3034201E3404202E3704201E32E4301E3644301E3004401E3224401E3364402E35F4401E3744401E3014501E3164501E3234501E33F4501E3534501E36E4502E3114601E31E4601E3404601E3474601E3624601E3774601E3054701E3204701E3344702E3424702E3644706E36C3F01E3733F01E3004001E3144001E3224001E32F4001E3514001E36D4001E3744001E31D4101E3234101E3314101E33F4101E3534101E36E4101E37C4101E31E4201E3254201E3704201E3774201E3124302E3424301E3644301E3004401E3144401E3224401E35F4401E3744401E3014501E3164501E3454502E3614501E3754501E3034601E3334602E3554601E3704601E3124701E3274701E3504701E3574701E3004802E36C3F03E3733F01E37A3F01E30D4001E3144002E3224001E33D4001E3444001E34B4001E3514001E36D4001E3744002E30F4101E31D4101E3234101E33F4101E3534101E3614101E3684101E36E4101E3034201E31E4201E3334201E3554201E3694201E3054301E3204301E3344301E3424301E35D4301E3644301E35F4401E3314501E3254601E3554601E3124702E3344701E3424701E3504701E3004805E3004001E3064001E30D4001E33D4003E36D4001E3744001E3234101E3314101E36E4102E3114201E3254201E3334201E37E4201E32E4301E3644301E32F4401E3444401E30F4501E3234501E33F4501E3454501E3614501E3754501E3034601E31E4601E3334601E3404602E3554601E3624601E3054701E3204701E3344701E3424701E3504701E3574701E3644701E36B4701E3724701E3004801E3144801E32F4801E3364802E3004003E3064002E30D4001E3224001E33D4003E3444001E3514001E35F4001E36D4001E3744001E30F4101E31D4101E3314101E34E4201E3554201E37E4201E3054301E3204301E3424301E35D4301E3644301E3004401E3224401E3364401E3514401E3014501E30F4501E3234501E33F4501E3454501E3614501E36E4502E3034603E3254601E3474601E3554601E3124701E3644701E3724701E3064801E32F4802E3364802E30D4001E3224001E33D4001E3444001E3514001E36D4001E3014101E3084101E30F4101E3314101E33F4101E3614101E36E4101E3114201E3404203E3554201E3054301E3194301E35D4301E30D4401E3224401E3444401E35F4401E3744401E3014501E3084501E30F4501E3164501E33F4501E3454501E3534501E3754501E3404601E3624601E3774601E3124701E3504701E3574701E3644701E3724701E3004802E3064801E3224801E32F4804E3004001E3224001E32F4001E33D4001E3744001E31D4101E3314101E33F4101E3454101E3614102E37C4101E3114201E3254201E32C4201E3404201E3554201E3704201E37E4201E3054301E3344302E3424301E35D4301E3724301E3004401E3144401E3224401E32F4401E3364401E3444401E35F4401E3664401E3014501E3164501E3314501E3614501E3114601E31E4601E3474601E3624601E3704601E3054701E3274702E32F4001E3444001E3514001E3014101E3084101E30F4101E31D4101E3234101E34C4101E3534101E36E4101E37C4101E3114202E31E4201E3334201E3404201E34E4201E3554201E3704202E37E4201E3124301E3204302E3344301E3504301E3644301E3724301E3144401E3224401E3444402E3744401E30F4501E3234501E33F4501E3454501E3754501E3114601E3254601E3404601E3474601E3774601E3274701E3733F01E3004002E3144001E3224001E33D4001E3444001E35F4002E3014101E3234101E3314101E3614101E3034201E3404202E3704201E32E4301E3644301E3004401E3224401E3364402E35F4401E3744401E3014501E3164501E3234501E33F4501E3534501E36E4502E3114601E31E4601E3404601E3474601E3624601E3774601E3054701E3204701E3344702E3424702E3644706E36C3F01E3733F01E3004001E3144001E3224001E32F4001E3514001E36D4001E3744001E31D4101E3234101E3314101E33F4101E3534101E36E4101E37C4101E31E4201E3254201E3704201E3774201E3124302E3424301E3644301E3004401E3144401E3224401E35F4401E3744401E3014501E3164501E3454502E3614501E3754501E3034601E3334602E3554601E3704601E3124701E3274701E3504701E3574701E3004802E36C3F03E3733F01E37A3F01E30D4001E3144002E3224001E33D4001E3444001E34B4001E3514001E36D4001E3744002E30F4101E31D4101E3234101E33F4101E3534101E3614101E3684101E36E4101E3034201E31E4201E3334201E3554201E3694201E3054301E3204301E3344301E3424301E35D4301E3644301E35F4401E3314501E3254601E3554601E3124702E3344701E3424701E3504701E3004805E3004001E3064001E30D4001E33D4003E36D4001E3744001E3234101E3314101E36E4102E3114201E3254201E3334201E37E4201E32E4301E3644301E32F4401E3444401E30F4501E3234501E33F4501E3454501E3614501E3754501E3034601E31E4601E3334601E3404602E3554601E3624601E3054701E3204701E3344701E3424701E3504701E3574701E3644701E36B4701E3724701E3004801E3144801E32F4801E3364802E3004003E3064002E30D4001E3224001E33D4003E3444001E3514001E35F4001E36D4001E3744001E30F4101E31D4101E3314101E34E4201E3554201E37E4201E3054301E3204301E3424301E35D4301E3644301E3004401E3224401E3364401E3514401E3014501E30F4501E3234501E33F4501E3454501E3614501E36E4502E3034603E3254601E3474601E3554601E3124701E3644701E3724701E3064801E32F4802E3364802E30D4001E3224001E33D4001E3444001E3514001E36D4001E3014101E3084101E30F4101E3314101E33F4101E3614101E36E4101E3114201E3404203E3554201E3054301E3194301E35D4301E30D4401E3224401E3444401E35F4401E3744401E3014501E3084501E30F4501E3164501E33F4501E3454501E3534501E3754501E3404601E3624601E3774601E3124701E3504701E3574701E3644701E3724701E3004802E3064801E3224801E32F48830283304001E30D40B87F934D6454834D400C934D648140834D4000934C6418834C4000934D6418834D4000934C6418834C4000934D6418834D4000934C6418834C4000934D6418834D4000934C6418834C4000934D6418834D403093486430834840009349641883494000934B6418834B4000934D6418834D4018934F6424834F4000934D6430834D4000935164608351400C93516430835140009350641883504000935164188351400093506418835040009351641883514000935064188350400093516413E3733F0583514000E36C3F0093516401E3653F01E35E3F01E3583F01E3513F01E3433F02E33C3F01E32F3F01E3213F01E31A3F01E3133F01E30C3F01E3063F01E37F3E01E3783E01E3633E02E35D3E04E34F3E01E3413E03E33B3E01E32D3E02E3263E01E31F3E01E3123E01E3043E02E37D3D02E3763D01E3623D01E35B3D01E34D3D02E3403D02E3323D03E32B3D01E3243D01E31E3D01E3173D01E3023D05E37B3C01E3753C01E3603C01E3593C01E3523C03E34C3C01E3453C01E3303C01E3293C01E30E3C02E3073C01E3003C01E37A3B01E36C3B02E35E3B01E3583B01E3513B03E3213B02E37F3A02E34F3A02E3483A01E3123A01E30B3A01E35B3902E34D39078351400093516412E3733F128351400C934D6424834D4000934A6418834A4000934D6424834D40009348641883484000934D6422E37A3F01E3004004E3064001E30D4005E3144004E3224003E3284002E3444003E34B4001E3514003E36D4002E31D4102E3014101E37A4001E35F4002E3584001E3514001E34B4001E3444005E32F4001E3224001E3004001E37A3F01E37F3E05E30D400CE37A3F01E3653F01E34A3F01E3353F01E31A3F01E3063F01E3713E01E3563E01E3413E01E3263E01E3123E01E3763D01E3623D01E34D3D01E3323D01E31E3D01E3023D01E36E3C01E3593C01E33E3C01E3293C01E30E3C01834D4000E37A3B00934D6401E35E3B01E34A3B01E3353B01E31A3B01E3063B01E36A3A01E3563A01E3413A01E3263A01E3123A01E3763901E3623901E3463901E3323901E31E3901E37A3706E30E3801E3233801E33E3801E3523801E36E3801E3023901E31E3901E3323901E34D3901E3623901E37D3901E3123A01E32D3A01E3413A01834D4000E35D3A01E3713A01E3063B01E3213B01E3353B01E3513B01E3653B01E3003C01E3153C01E3303C01E3453C01E3603C01E3753C00934D6401E3103D01E3243D01E3403D01E3543D01E3693D01E3043E01E3183E01E3343E01E3483E01E3633E01E3783E01E3133F01E3283F01E3433F01E3583F01E3733F01E3064001E3224001E3433F02E3144001E3283F01E3144001834D401893516424835140069352642A83524000935464248354400C93566405E30D4002E3144001E35E3F01E3653F01E36C3F01E3733F01E37A3F01E3004001E3064001E30D4001E3144001E31B4001E3224001E3284001E32F4001E3364001E33D4001E3444001E34B4001E3514001E3584001E35F4001E36D4001E37A4001E3084101E31D4104E3084101E36D4001E3584001E33D4001E3284001E30D4001E37A3F01E35E3F01E34A3F01E32F3F01E31A3F01E37F3E01E36A3E01E34F3E01E33B3E01E31F3E01E30B3E01E36F3D01E37D3D01E3123E01E31F3E01E3343E01E3483E01E3563E01E36A3E01E3783E01E30C3F01E3213F01E32F3F01E3433F01E3583F01E3653F01E37A3F01E3064001E31B4001E32F4001E33D4001E3514001E35F4001E3744001E3084101E3164101E32A4101E33F4101E3234101E3084101E3664001E34B4001E3284001E30D4001E3733F01E3513F01E3353F01E3133F01E3783E01E35D3E01E33B3E01E31F3E01E37D3D01E3623D01E3403D01E35B3D01E3763D01E3183E01E3343E01E3563E01E3713E01E30C3F01E32F3F01E34A3F01E36C3F01E3064001E3224001E3444001E35F4001E3014101E31D4101E3384101E35A4101E3754101E3174201E3334201E3554201E33A4201E3174201E3754101E35A4101E3384101E3164101E3744001E3584001E3364001E3144001E37A3F01E3583F01E3353F01E3133F01E3783E01E3563E01E3343E01E3183E01E3763D01E3543D01E3323D01E3543D01E3763D01E31F3E01E3413E01E36A3E01E30C3F01E3353F01E3583F01E3004001E3224001E3444001E36D4001E30F4101E3384101E35A4101E3034201E3254201E34E4201E31E4201E3684101E3384101E3014101E3514001E31B4001E3653F01E3353F01E37F3E01E34F3E01E3183E01E3693D01E3323D01E37B3C01E3173D01E3393D01E3543D01E3763D01E3183E01E3343E01E3563E01E3783E01E3133F0183564000E3353F01E3513F01E3733F01E3144001E32F4001E3514001E3744001E30F4101E3314101E3334201E32C4201E3034201E36E4101E3684101E34C4101E3234101E3744003E32F4001E3224001E3733F01E3513F01E32F3F0193526401E30C3F01E34F3E02E3123E01E34D3D01E3403D02E32B3D01E3303C02E3403D01E34F3E01E3733F0B8352400C93516404E37A3F01E300401383514006E30D4003E314400393526413E3004001E30D400483524002E314400A935164188351400093526418835240009351641883514000934D6418834D400093526418835240009351641883514000934D6418834D4000934864188348400093526418835240009351640AE3433F01E3213F03E3133F03E30C3F01E37F3E03E3633E01E35D3E01E3563E0183514000E34F3E00934D6401E3043E02E34D3D01E3023D01E37B3C01E36E3C01E34C3C01E3303C02E3293C01E30E3C01E3003C01E37A3B01E35E3B01E3513B01E32F3B02E3283B01E30C3B01E3063B01E37F3A01E3713A01E36A3A01834D4000E35D3A0093416401E34F3A02E3483A01E3413A01E33B3A01E32D3A01E31F3A01E3123A01E3623901E3733B01E3043E01E3144001E3004001E37A3F01E3733F02E36C3F01E35E3F1E8341400C93416418834140009341641883414000934164248341400C934D6430834D40009348643083484000934D6414E36C3F0AE35E3F02E34D3901E36F3901E3123A01E3343A01E35D3A01E37F3A01E3213B01E34A3B01E36C3B01E30E3C01E3373C01E3593C01E37B3C01E3243D01E3463D01E3693D01834D4000E3123E0093516401E3343E01E3563E01E37F3E01E3213F01E3433F01E36C3F36E35B3901E3763901E3123A01E3343A01E34F3A01E3713A01E30C3B01E3283B01E34A3B01E3653B01E3073C01E3233C01E33E3C01E3603C01E37B3C01E31E3D01E3393D01E3543D01E3763D01E3123E01E3343E01E3004039E3103903E31E3901E3093901E3323901E35B3901E3043A01E32D3A01E3563A01E37F3A01E3283B01E3513B01E37A3B01E3233C01E34C3C01E3753C01E31E3D01E3463D01E36F3D01E3183E01E3413E01E36A3E01E3133F01E33C3F01E36C3F01E3433F18E31E3901E3393901E3543901E3763901E3123A01E3343A01E34F3A01E36A3A01E30C3B01E3283B01E34A3B01E3653B01E3003C01E3233C01E33E3C01E3603C01E37B3C01E3173D01E3393D01E3543D01E3763D01E3123E01E3343E03E35D3E01E36A3E01E3783E01E3433F13E37B3801E3173901E3323901E34D3901E3693901E3043A01E3263A01E3413A01E35D3A01E3783A01E3133B01E3353B01E3513B01E36C3B01E3073C01E3233C01E33E3C01E3603C01E37B3C01E3173D01E3323D01E34D3D01E36F3D01E30B3E01E3263E01E3413E01E35D3E01E37F3E01E31A3F01E3353F01E3513F01E36C3F17E3733F01E37A3F01E3004001E30D4001E3144001E3224001E3284001E3364001E33D4001E3444001E3514001E3584001E3664001E36D4001E37A4001E3014101E3084101E3164101E31D4101E32A4101E3314101E33F4101E3454101E34C4101E35A4101E3614101E36E4101E3754101E3034201E3614101E33F4101E3164101E3744001E34B4001E3284001E3004001E35E3F01E3353F01E3133F01E3713E01E3483E01E3263E01E37D3D01E35B3D01E3323D01E3103D01E3673C01E3453C01E31C3C01E3373C01E3523C01E36E3C01E3093D01E32B3D01E3463D01E3623D01E37D3D01E31F3E01E33B3E01E3563E01E3713E01E30C3F01E32F3F01E34A3F01E3653F01E3004001E3234102E33F4101E3614101E3254201E30A4201E36E4101E3534101E3384101E31D4101E3014101E3664001E34B4001E32F4001E3144001E37A3F01E35E3F01E3433F01E3283F01E30C3F01E3713E01E3563E01E33B3E01E31F3E01E3043E01E3693D01E34D3D01E3323D01E3173D01E37B3C01E3603C01E3453C01E3293C01E30E3C01E3373C01E3673C01E3173D01E3463D01E3763D01E31F3E01E34F3E01E37F3E01E32F3F01E35E3F01E30D4001E3364001E3664001E3164101E3454101E3754101E3254201E30A4201E36E4101E3534101E3384101E31D4101E3014101E3664001E34B4001E32F4001E3144001E37A3F01E35E3F01E3433F01E3283F01E30C3F01E3713E01E3563E01E33B3E01E31F3E01E3043E01E3693D01E34D3D01E3323D01E3173D01E37B3C01E3603C01E3453C01E3293C01E30E3C01E3303C01E3523C01E3753C01E3173D01E3393D01E35B3D01E37D3D01E31F3E01E3413E01E3633E01E3063F01E3283F01E3513F01E3733F01E3144001E3364001E3584001E37A4001E31D4101E33F4101E3614101E3034201E3254201E3474201E3704201E3474201E31E4201E3754101E34C4101E3234101E37A4001E3514001E3284001E3004001E3583F01E32F3F01E3063F01E35D3E01E3343E01E30B3E01E3623D01E3393D01E3103D01E3673C01E33E3C01E3153C01E36C3B01E3153C01E33E3C01E3673C01E3103D01E3393D01E3623D01E30B3E01E3343E01E35D3E01E3063F01E32F3F01E3583F01E3004001E3284001E3514001E37A4001E3234101E34C4101E3754101E31E4201E3474201E3704201E3194301E3424301E3274301E30B4301E3704201E3554201E33A4201E31E4201E3034201E3684101E34C4101E3314101E3164101E37A4001E35F4001E3444001E3284001E30D4001E3733F01E3583F01E3233C01E33E3C01E3593C01E3753C01E3173D01E3323D01E34D3D01E36F3D01E30B3E01E3263E01E3483E01E3633E01E37F3E01E3213F01E33C3F01E3583F01E37A3F01E3144001E32F4001E34B4001E36D4001E3084101E3234101E3454101E3614101E37C4101E31E4201E33A4201E3554201E3774201E3124301E32E4301E3504301E3194301E3624201E32C4201E3754101E33F4101E3084101E3514001E31B4001E35E3F01E3283F01E3713E01E33B3E01E3043E01E34D3D01E3173D01E3603C01E3233C01E33E3C01E3603C01E3023D01E3243D01E3463D01E3693D01E30B3E01E3263E01E3483E01E36A3E01E30C3F01E32F3F01E3513F01E3733F01E30D4001E32F4001E3514001E3744001E3164101E3384101E35A4101E3754101E3174201E33A4201E35C4201E37E4201E3204301E3424301E3644301E33B4301E3124301E3694201E33A4201E3114201E3684101E3384101E30F4101E3664001E3364001E30D4001E3653F01E3353F01E30C3F01E3633E01E3343E01E30B3E01E3623D01E3323D01E3093D01E3603C01E3303C01E3523C01E3753C01E3173D01E3403D01E3623D01E3043E01E32D3E01E34F3E01E3713E01E31A3F01E33C3F01E35E3F01E3064001E3284001E34B4001E36D4001E3164101E3384101E35A4101E3034201E3254201E3474201E3704201E3124301E3344301E35D4301E3344301E30B4301E3624201E33A4201E30A4201E3614101E3384101E30F4101E3664001E3364001E30D4001E3653F01E33C3F01E3133F01E3633E01E33B3E01E3123E01E3693D01E3403D01E3103D01E3673C01E33E3C01E3153C01E36C3B01E33C3B01E35E3B01E3073C01E3293C01E3523C01E3753C01E31E3D01E3403D01E3693D01E3123E01E3343E01E35D3E01E37F3E01E3283F01E34A3F01E3733F01E31B4001E33D4001E3664001E3084101E3314101E3534101E37C4101E3254201E3474201E3704201E3124301E33B4301E35D4301E3064401E32F4401E35D4301E3054301E32C4201E3534101E37A4001E3224001E34A3F01E3713E01E3183E01E3403D01E3673C01E31C3C01E3303C01E34C3C0183514000E3673C01E3023D01E31E3D01E3393D01E3543D01E36F3D01E30B3E01E3263E01E3413E01E35D3E01E3783E01E3133F01E32F3F01E34A3F01E3653F01E3004001E31B4001E3364001E3514001E36D4001E3084101E3234101E33F4101E35A4101E3754101E3114201E32C4201E3474201E3624201E37E4201E3194301E3344301E3504301E3204301E3694201E3334201E3034201E34C4101E3164101E35F4001E32F4001E37A3F01E3433F01E3133F01E35D3E01E3263E01E36F3D01E3403D01E3093D01E3523C01E31C3C01E3373C01E3593C01E3753C01E3173D01E3323D01E3543D01E36F3D01E3123E01E32D3E01E34F3E01E36A3E01E30C3F01E3283F01E34A3F01E3653F01E3064001E3224001E3444001E35F4001E3014101E31D4101E33F4101E35A4101E37C4101E3174201E33A4201E3554201E3774201E3124301E3344327E3733F9359933E640C833E4006933E6418833E4006933E6417E3733F01E34A3F01E3213F01E3783E01E34F3E01E3263E01E3763D01E34D3D01E3243D01E37B3C01E3523C01E3233C01E37A3B01E3513B01E3283B01E37F3A01E3563A01E3263A01E37D3901E3543901E32B3901E3023901E3523801E3293801E3003801E3583701E32F3701E37F3608E3063701E30C3701E31A3713E3063701E37F360A833E4004E30D4002933F642CE36C3F01E3653F01E3583F01E34A3F01E3133F01E3783E01E3563E01E33B3E01E3183E01E37D3D01E35B3D01E3393D01E31E3D01E37B3C01E3603C01E33E3C01E31C3C01E3003C01E35E3B01E3433B01E3213B01E37F3A1F833F4000E3004000934164840EE30F4102E3084101E3014101E37A4001E3744001E36D4001E3664001E35F4001E3584001E3514001E34B4001E3444002E33D4001E3364001E32F4001E3284001E3224001E31B4001E3144001E30D4001E3064001E3004001E37A3F02E3733F01E36C3F01E3653F01E35E3F01E3583F01E3513F01E34A3F01E3433F01E33C3F01E3353F01E32F3F02E3283F01E3213F01E31A3F01E3133F01E30C3F01E3063F01E37F3E01E3783E01E3713E01E36A3E01E3633E01E36A3E01E3713E01E37F3E01E3063F01E3133F01E31A3F01E3213F01E32F3F01E3353F01E3433F01E34A3F01E3513F01E35E3F01E3653F01E3733F01E37A3F01E3004001E30D4001E3144001E3224001E3284001E32F4001E33D4001E3444001E3514001E3584001E35F4001E36D4001E3744001E3014101E3084101E30F4101E31D4101E3234101E3314101E3384101E33F4101E34C4101E3534101E3614101E36E4101E37C4101E3114202E3174202E31E4201E3254202E32C4201E3334201E32C4201E31E4201E3114201E3034201E3754101E36E4101E3614101E3534101E3454101E3384101E3314101E3234101E3164101E3084101E37A4001E3744001E3664001E3584001E34B4001E33D4001E3364001E3284001E31B4001E30D4001E3004001E3733F01E36C3F01E35E3F01E3513F01E3433F01E3353F01E32F3F01E3213F01E3133F01E3063F01E3783E01E3713E01E3633E01E3563E01E3483E01E33B3E01E3343E01E3263E01E3183E01E30B3E01E37D3D01E36F3D01E37D3D01E30B3E01E3183E01E32D3E01E33B3E01E3483E01E3563E01E36A3E01E3783E01E3063F01E3133F01E3283F01E3353F01E3433F01E3513F01E3653F01E3733F01E3004001E30D4001E3224001E32F4001E33D4001E34B4001E35F4001E36D4001E37A4001E3084101E31D4101E32A4101E3384101E3454101E35A4101E3684101E3754101E3034201E3174201E3254201E3334201E3404201E3554201E3624201E3704201E37E4201E3124301E3204301E32E4301E3424301E3344301E3204301E30B4301E37E4201E3694201E3554201E3474201E3334201E31E4201E3114201E37C4101E3684101E35A4101E3454101E3314101E31D4101E30F4101E37A4001E3664001E3584001E3444001E32F4001E3224001E30D4001E37A3F01E36C3F01E3583F01E3433F01E3353F01E3213F01E30C3F01E3783E01E36A3E01E3563E01E3413E01E3343E01E31F3E01E30B3E01E37D3D01E3693D01E3543D01E3463D01E3323D01E31E3D01E3103D01E37B3C01E3673C01E3523C01E3603C01E3753C01E3093D01E31E3D01E3323D01E3463D01E35B3D01E36F3D01E3043E01E3123E01E3263E01E33B3E01E34F3E01E3633E01E3783E01E30C3F01E3213F01E3353F01E3433F01E3583F01E36C3F01E3004001E3144001E3284001E33D4001E3514001E3664001E3744001E3084101E31D4101E3314101E3454101E35A4101E36E4101E3034201E3174201E3254201E33A4201E34E4201E3624201E3774201E30B4301E3204301E3344301E3494301E35D4301E36B4301E3004401E36B4301E3574301E3424301E32E4301E3194301E3054301E3704201E35C4201E3474201E32C4201E3174201E3034201E36E4101E35A4101E3454101E3314101E31D4101E3084101E3744001E3584001E3444001E32F4001E31B4001E3064001E3733F01E35E3F01E34A3F01E3353F01E3213F01E3063F01E3713E01E35D3E01E3483E01E3343E01E31F3E01E30B3E01E3763D01E3623D01E34D3D01E3323D01E31E3D01E3093D01E3753C01E3603C01E34C3C01E3373C01E3233C01E30E3C01E37A3B01E35E3B01E3733B01E30E3C01E3233C01E33E3C01E3523C01E36E3C01E3093D01E31E3D01E3393D01E34D3D01E3693D01E3043E01E3183E01E3343E01E3483E01E3633E01E3783E01E3133F01E32F3F01E3433F01E35E3F01E3733F01E30D4001E3284001E33D4001E3584001E36D4001E3084101E3234101E3384101E3534101E3684101E3034201E3174201E3334201E34E4201E3624201E37E4201E3124301E32E4301E3494301E35D4301E3794301E30D4401E3284401E3444401E32F4401E31B4401E3004401E36B4301E3574301E33B4301E3274301E3124301E3774201E3624201E34E4201E3334201E31E4201E30A4201E36E4101E35A4101E3454101E32A4101E3164101E3014101E3664001E3514001E33D4001E3224001E30D4001E37A3F01E35E3F01E34A3F01E3353F01E31A3F01E3063F01E3713E01E3563E01E3413E01E32D3E01E3123E01E37D3D01E3693D01E34D3D01E3393D01E3243D01E3093D01E3753C01E3603C01E3453C01E3303C01E31C3C01E3003C01E36C3B01E3583B01E33C3B01E3513B01E36C3B01E3073C01E3233C01E33E3C01E3523C01E36E3C01E3093D01E3243D01E3403D01E3543D01E36F3D01E30B3E01E3263E01E3413E01E3563E01E3713E01E30C3F01E3283F01E3433F01E3583F01E3733F01E30D4001E3284001E3444001E3584001E3744001E30F4101E32A4101E3454101E35A4101E3754101E3114201E32C4201E3474201E35C4201E3774201E3124301E32E4301E3494301E35D4301E3794301E3144401E32F4401E34B4401E3224403E3144401E30D4401E3444401E3284401E30D4401E3724301E3504301E3344301E3194301E3774201E35C4201E3404201E31E4201E3034201E3684101E34C4101E32A4101E30F4101E3744001E3514001E3364001E31B4001E37A3F01E35E3F01E3433F01E3283F01E3063F01E36A3E01E34F3E01E32D3E01E3123E01E3763D01E3543D01E3393D01E31E3D01E3023D01E3603C01E3453C01E3293C01E3073C01E36C3B01E3513B01E32F3B03E33C3B01E3513B01E36C3B01E3073C01E3233C01E33E3C01E3593C01E3753C01E3103D01E32B3D01E3403D01E35B3D01E3763D01E3123E01E32D3E01E3483E01E3633E01E37F3E01E31A3F01E32F3F01E34A3F01E3653F01E3004001E31B4001E3364001E3514001E36D4001E3084101E31D4101E3384101E3534101E36E4101E30A4201E3254201E3404201E35C4201E3774201E30B4301E3274301E3424301E35D4301E3794301E3144401E32F4401E34B4401E3664401E3514401E3364401E3224401E3064401E3724301E3574301E3424301E3274301E30B4301E3774201E35C4201E3474201E32C4201E3174201E37C4101E3614101E34C4101E3314101E31D4101E3014101E36D4001E3514001E3364001E3224001E3064001E3733F01E3583F01E3433F01E3283F01E30C3F01E3783E01E35D3E01E3483E01E32D3E01E3183E01E37D3D01E3623D01E34D3D01E3323D01E31E3D01E3023D01E36E3C01E3523C01E3373C01E3233C01E3073C01E3733B01E3583B01E3433B01E3283B0183414000E30C3B01E3283B01E3433B01E35E3B01E37A3B01E3153C01E3303C01E34C3C01E3673C01E3023D01E31E3D01E3393D01E3543D01E36F3D01E30B3E01E3263E01E3413E01E35D3E01E3783E01E3133F01E32F3F01E34A3F01E3653F01E3004001E31B4001E3364001E3514001E36D4001E3084101E3234101E33F4101E35A4101E3754101E3114201E32C4201E3474201E3624201E37E4201E3194301E3344301E3504301E36B4301E3064401E3224401E33D4401E3584401E3744401E3164501E37A4401E35F4401E3444401E3284401E30D4401E3724301E3574301E33B4301E3204301E3054301E3694201E34E4201E3334201E3174201E37C4101E3614101E3454101E32A4101E30F4101E3744001E3584001E33D4001E3224001E3064001E36C3F01E3513F01E3353F01E31A3F01E37F3E01E3633E01E3483E01E32D3E01E3123E01E3763D01E35B3D01E3403D01E3243D01E3093D01E36E3C01E3523C01E3373C01E31C3C01E3003C01E3653B01E34A3B01E3004033933E640C833E4006933E6418833E4006933E6417E3733F01E34A3F01E3213F01E3783E01E34F3E01E3263E01E3763D01E34D3D01E3243D01E37B3C01E3523C01E3233C01E37A3B01E3513B01E3283B01E37F3A01E3563A01E3263A01E37D3901E3543901E32B3901E3023901E3523801E3293801E3003801E3583701E32F3701E37F3608E3063701E30C3701E31A3713E3063701E37F360EE30D4002833E4000933F642CE36C3F01E3653F01E3583F01E34A3F01E3133F01E3783E01E3563E01E33B3E01E3183E01E37D3D01E35B3D01E3393D01E31E3D01E37B3C01E3603C01E33E3C01E31C3C01E3003C01E35E3B01E3433B01E3213B01E37F3A1F833F4000E3004000934164840EE30F4102E3084101E3014101E37A4001E3744001E36D4001E3664001E35F4001E3584001E3514001E34B4001E3444002E33D4001E3364001E32F4001E3284001E3224001E31B4001E3144001E30D4001E3064001E3004001E37A3F02E3733F01E36C3F01E3653F01E35E3F01E3583F01E3513F01E34A3F01E3433F01E33C3F01E3353F01E32F3F02E3283F01E3213F01E31A3F01E3133F01E30C3F01E3063F01E37F3E01E3783E01E3713E01E36A3E01E3633E01E36A3E01E3713E01E37F3E01E3063F01E3133F01E31A3F01E3213F01E32F3F01E3353F01E3433F01E34A3F01E3513F01E35E3F01E3653F01E3733F01E37A3F01E3004001E30D4001E3144001E3224001E3284001E32F4001E33D4001E3444001E3514001E3584001E35F4001E36D4001E3744001E3014101E3084101E30F4101E31D4101E3234101E3314101E3384101E33F4101E34C4101E3534101E3614101E36E4101E37C4101E3114202E3174202E31E4201E3254202E32C4201E3334201E32C4201E31E4201E3114201E3034201E3754101E36E4101E3614101E3534101E3454101E3384101E3314101E3234101E3164101E3084101E37A4001E3744001E3664001E3584001E34B4001E33D4001E3364001E3284001E31B4001E30D4001E3004001E3733F01E36C3F01E35E3F01E3513F01E3433F01E3353F01E32F3F01E3213F01E3133F01E3063F01E3783E01E3713E01E3633E01E3563E01E3483E01E33B3E01E3343E01E3263E01E3183E01E30B3E01E37D3D01E36F3D01E37D3D01E30B3E01E3183E01E32D3E01E33B3E01E3483E01E3563E01E36A3E01E3783E01E3063F01E3133F01E3283F01E3353F01E3433F01E3513F01E3653F01E3733F01E3004001E30D4001E3224001E32F4001E33D4001E34B4001E35F4001E36D4001E37A4001E3084101E31D4101E32A4101E3384101E3454101E35A4101E3684101E3754101E3034201E3174201E3254201E3334201E3404201E3554201E3624201E3704201E37E4201E3124301E3204301E32E4301E3424301E3344301E3204301E30B4301E37E4201E3694201E3554201E3474201E3334201E31E4201E3114201E37C4101E3684101E35A4101E3454101E3314101E31D4101E30F4101E37A4001E3664001E3584001E3444001E32F4001E3224001E30D4001E37A3F01E36C3F01E3583F01E3433F01E3353F01E3213F01E30C3F01E3783E01E36A3E01E3563E01E3413E01E3343E01E31F3E01E30B3E01E37D3D01E3693D01E3543D01E3463D01E3323D01E31E3D01E3103D01E37B3C01E3673C01E3523C018341400093416403E3733F813D83414000933C648140833C4000934164811083414000934064817083404000933A648300833A4000933A2930833A4000933B3130833B4000933A3A30833A4000933B4330833B4000933A4B30833A4000933B5430833B4000933A5D30833A4000933B6630833B40A57093376630833740009339663083394000933B6630833B4000933766814083374000933766814083374000933766814083374000933766814083374000933A668140833A4000933A668140833A4000933A668140833A4000933A668140833A4000934164822083414030933C6430833C4000933E6430833E4000934164248341400C93416430834140009343641883434000934164188341400093446430834440009343644883434000934464188344400093436418834340009341641883414000933C6424833C4000934A6430834A4000934A6406E3653F01E3733F01E3064001E3144001E3284001E33D4001E34B4001E35F4001E36D4001E3014101E3164101E3234101E3384101E3454101E35A4101E36E4101E37C4101E3114201E31E4201E3334201E3474201E3554201E3694201E37E4201E3624201E3474201E32C4201E3114201E36E4101E3534101E3384101E31D4101E37A4001E35F4001E3444001E3284001E3064001E36C3F01E3513F01E3353F01E3133F01E3783E01E35D3E01E3413E01E31F3E01E3043E01E3693D01E34D3D01E32B3D01E3463D01E3693D01E30B3E01E32D3E01E34F3E01E3713E01E3133F01E32F3F01E3513F01E3733F01E3144001E3364001E3584001E37A4001E3164101E3384101E35A4101E37C4101E31E4201E3404201E3624201E3054301E3624201E3404201E3174201E3754101E34C4101E32A4101E3014101E35F4001E33D4001E3144001E3733F01E34A3F01E3283F01E37F3E01E35D3E01E34D3D01E3393D01E3243D01E36E3C02E3603C02E3303C01E3673C01E3243D01E35B3D01E3183E01E34F3E01E30C3F01E3433F01E3004001E3624202E3004001E3144001E3284001E3444001E3584001E3744001E3084101E3234101E3384101E3534101E3684101E3034201E3174201E3334201E3474201E3624201E3774201E3124301E35C4201E3254201E36E4101E3384101E3014101E34B4001E3144001E35E3F01E3283F01E3713E01E33B3E01E3043E01E34D3D01E3173D01E3603C02E30F4101E31D4101E3384101E33F4101E34C4102E3684102E3034202E30A4201E3174201E3474201E3704213E37E4A01E3774A01E3694A01E3624A01834A4000E3554A00934A6401E3474A01E3404A01E3334A01E3254A01E31E4A01E3114A01E3034A01E37C4901E36E4901E3614901E35A4901E34C4901E3454901E3384901E32A4901E3234901E3164901E3084901E3014901E3744801E3664801E35F4801E3514801E3444801E33D4801E32F4801E3224801E31B4801E30D4801E3064801E3794701E36B4701E3644701E3574701E3494701E3424701E3344701E3274701E3204701E3124701E3054701E37E4601E3704601E3694601E35C4601E34E4601E3474601E33A4601E32C4601E3254601E3174601E30A4601E3034601E3754501E3684501E3614501E3534501E3454501E33F4501E3314501E32A4501E31D4501E30F4501E3084501E37A4401E36D4401E3664401E3584401E34B4401E3444401E3364401E3284401E3224401E3144401E30D4401E3004401E3724301E36B4301E35D4301E3504301E3494301E33B4301E32E4301E3274301E3194301E30B4301E3054301E3774201E3694201E3624201E3554201E34E4201E3404201E3334201E32C4201E31E4201E3114201E30A4201E37C4101E36E4101E3684101E35A4101E34C4101E3454101E3384101E3314101E3234101E3164101E30F4101E3014101E3744001E36D4001E35F4001E3514001E34B4001E33D4001E32F4001E3284001E31B4001834A4000E30D400093416430834140009343641483434000934164158341400093436414834340009341641583414000934364148343400093416415834140009343641483434000934164158341400093436414834340009341641583414000934364148343400093416415834140009343641483434000934164158341400193516430835140009354640C835440009352640C835240009351640C8351400C9354640C835440009352640C835240009351640C8351400C9354640C835440009352640C835240009351640C8351400C9354640C835440009352640B835240009351640C8351400D9354640C835440009352640C835240009351640C8351400C9354640C835440009352640C835240009351640C8351400C9354640C835440009352640C835240009351640C8351400C9354640C835440009352640B835240009351640C8351400D9354640C835440009352640C835240009351640C8351400C9354640C835440009352640C835240009351640C8351400C934F6430834F400093516403E3144001E31B4002E3224001E32F4001E33D4001E34B4001E3584002E35F4001E36D4001E37A4002E3084104E30F4101E31D4101E3234101E32A4101E3384103E34C4103E3534101E35A4103E3684102E3754102E3034201E3174203E3254201E3404203E3474201E362425EE3554201E3474201E33A420183514000E32C420093486401E31E4201E3114201E3034201E3754101E3684101E3534101E3454101E3384101E32A4101E31D4101E30F4101E3014101E3744001E3664001E3514001E3444001E3364001E3284001E31B4001E30D4001E3004001E3733F01E3653F01E3513F01E3433F01E3353F01E3283F01E31A3F01E30C3F01E37F3E01E3713E01E3633E01E34F3E01E3413E01E3343E01E3263E01E3183E01E30B3E01E37D3D01E36F3D01E3623D01E34D3D01E3403D01E3323D01E3243D01E3173D01E3093D01E37B3C01E36E3C01E3603C01E3523C01E33E3C01E3303C01E3233C01E3153C01E3073C01E37A3B01E36C3B01E35E3B01E3513B01E33C3B01E32F3B01E3213B01E3133B01E3063B01E3783A01E36A3A01E35D3A01E34F3A01E33B3A01E32D3A01E31F3A01E3123A01E3043A01E3763901E3693901E35B3901E34D3901E3393901E32B3901E31E3901E3103901E3023901E3753801E3673801E3593801E34C3801E3373801E3293801E31C3801E30E3801E3003801E3733701E3653701E31B400183484000934364188343400C934164188341400C934364188343400C934164188341400093486405E35D4302E35D4701E3574701E3504701E3494701E3424701E33B4701E3344701E3274701E3204701E3194701E3124701E30B4701E3054701E37E4601E3704601E3694601E3624601E35C4601E3554601E34E4601E3474601E33A4601E3334601E32C4601E3254601E31E4601E3174601E3114601E3034601E37C4501E3754501E36E4501E3684501E3614501E35A4501E34C4501E3454501E33F4501E3384501E3314501E32A4501E3234501E3164501E30F4501E3084501E3014501E37A4401E3744401E3664401E35F4401E3584401E3514401E34B4401E3444401E33D4401E32F4401E3284401E3224401E31B4401E3144401E30D4401E3064401E3794301E3724301E36B4301E3644301E35D4301E3574301E3504301E3424301E33B4301E3344301E32E4301E3274301E3204301E3194301E30B4301E3054301E37E4201E3774201E3704201E3694201E3624201E3554201E34E4201E3474201E3404201E33A4201E3334201E3254201E31E4201E3174201E3114201E30A4201E3034201E37C4101E36E4101E3684101E3614101E35A4101E3534101E34C4101E3454101E3384101E3314101E32A4101E3234101E31D4101E3164101E30F4101E3014101E37A4001E3744001E36D4001E3664001E35F4001E3584001E34B4001E3444001E33D4001E3364001E32F4001E3284001E3224001E3144001E30D4001E3064001E3004001E37A3F01E3733F01E3653F02E36C3F01E3653F40834840009341643083414000934D64821FE30D4005E3064004E3004004E37A3F04E3733F04E36C3F04E3653F04E35E3F04E3583F04E3513F04E34A3F04E3433F05E33C3F04E3353F04E32F3F04E3283F04E3213F04E31A3F04E3133F04E30C3F04E3063F04E37F3E04E3783E01E3713E01E3783E01E3063F01E3133F01E3213F01E32F3F01E33C3F01E34A3F01E3583F01E3653F01E3733F01E3004001E30D4001E31B4001E3284001E3364001E33D4001E34B4001E3584001E3664001E3744001E3014101E30F4101E31D4101E32A4101E3384101E3454101E3534101E3614101E36E4101E37C4101E30A4201E3684101E3454101E3234101E3014101E35F4001E33D4001E31B4001E3733F01E3513F01E32F3F01E30C3F01E36A3E01E3483E01E3263E01E37D3D01E3123E01E32D3E01E3483E01E3633E01E37F3E01E31A3F01E3353F01E34A3F01E3653F01E3004001E31B4001E3364001E3514001E36D4001E3014101E31D4101E3384101E3534101E36E4101E30A4201E3254201E3404201E3254201E3034201E3614101E3454101E3234101E3014101E35F4001E3444001E3224001E3004001E35E3F01E3433F01E3213F01E37F3E01E35D3E01E3413E01E31F3E01E37D3D01E35B3D01E36F3D01E30B3E01E31F3E01E33B3E01E34F3E01E36A3E01E3063F01E31A3F01E3353F01E34A3F01E3653F01E3004001E3144001E32F4001E3444001E35F4001E37A4001E30F4101E32A4101E33F4101E35A4101E3754101E30A4201E3254201E33A4201E3554201E3704201E3554201E3334201E3174201E3754101E3534101E3384101E3164101E3744001E3584001E3364001E3144001E37A3F01E3583F01E33C3F01E31A3F01E3783E01E35D3E01E33B3E01E3183E01E37D3D01E35B3D01E3393D03E3543D01E36F3D01E3123E01E32D3E01E34F3E01E36A3E01E30C3F01E3283F01E34A3F01E3653F01E3064001E3224001E33D4001E35F4001E37A4001E31D4101E3384101E35A4101E3754101E3174201E3334201E3554201E3704201E3124301E3704201E34E4201E3254201E3034201E3614101E3384101E3164101E3744001E34B4001E3284001E3064001E35E3F01E33C3F01E31A3F01E3713E01E34F3E01E32D3E01E3043E01E3623D01E3403D01E3173D01E3753C01E34C3C01E37B3C01E32B3D01E35B3D01E30B3E01E33B3E01E36A3E01E31A3F01E34A3F01E3004001E32F4001E35F4001E30F4101E33F4101E36E4101E31E4201E34E4201E3054302E35C4201E3334201E30A4201E3614101E3384101E30F4101E3664001E33D4001E3144001E36C3F01E3433F01E31A3F01E3713E01E3483E01E31F3E01E3763D01E34D3D01E3243D01E37B3C01E3523C01E3603C01E36E3C01E37B3C01E32B3D01E3763D01E3413E01E30C3F01E3583F01E3224001E36D4001E3384101E3034201E34E4201E3194301E36B4301E33B4301E30B4301E35C4201E3254201E3754101E3454101E3164101E35F4001E32F4001E3004001E3513F01E31A3F01E36A3E01E33B3E01E30B3E01E3543D01E3243D01E3753C01E33E3C01E3603C01E3023D01E3243D01E34D3D01E36F3D01E3123E01E3343E01E35D3E01E37F3E01E3213F01E34A3F01E36C3F01E30D4001E32F4001E3584001E37A4001E31D4101E3454101E3684101E30A4201E32C4201E3554201E3774201E3194301E3424301E37E4201E3334201E36E4101E3234101E35F4001E3144001E34A3F01E3063F01E33B3E01E3763D01E32B3D01E3603C01E3023D01E32B3D01E34D3D01E3763D01E31F3E01E3413E01E36A3E01E3133F01E3353F01E35E3F01E3064001E3284001E3514001E3744001E31D4101E3454101E3684101E3114201E33A4201E35C4201E3054301E32E4301E30B4301E3694201E3474201E31E4201E37C4101E35A4101E3314101E30F4101E36D4001E3444001E3224001E3004001E3583F01E3353F01E3133F01E36A3E01E3483E01E3263E01E37D3D01E35B3D01E3393D01E3103D01E3543D01E3183E01E35D3E01E3213F01E3653F01E3284001E36D4001E3314101E3754101E33A4201E37E4201E3424301E3344301E3774201E33A4201E37C4101E3384101E37A4001E33D4001E37A3F01E33C3F01E37F3E01E33B3E01E37D3D01E3403D01E37B3C01E3323D01E3693D01E31F3E01E3563E01E30C3F01E3433F01E37A3F01E32F4001E3664001E31D4101E3534101E30A4201E3404201E3774201E3344301E3054301E34E4201E3174201E3614101E32A4101E3744001E33D4001E30D4001E3583F01E3213F01834D4000E36A3E01E3343E01E37D3D01E3463D01E3103D01E3023D01E3103D01E3463D01E3043E01E33B3E01E3783E01E32F3F01E36C3F01E3284001E35F4001E31D4101E3344303E32E4302E3274302E3204302E3194303E3124302E30B4302E3054302E37E4203E3774202E3704202E3694202E3624203E35C4202E3554202E34E4202E3474203E3404202E33A4202E3334202E32C4203E3254202E31E4202E3174202E3114203E30A4202E3034202E37C4102E3754103E36E4102E3684102E3614102E35A4102E3534103E34C4102E3454102E33F4102E3384103E3314102E32A4102E3234102E31D4103E3164102E30F4102E3084102E3014103E37A4002E3744002E36D4002E3664003E35F4002E3584002E3514002E34B4003E3444002E33D4002E3364002E32F4003E3284002E3224002E31B4002E3144003E30D4002E3064002E3004002E37A3F02E3733F916C933E640C833E4006933E6418833E4006933E6417E3733F01E34A3F01E3213F01E3783E01E34F3E01E3263E01E3763D01E34D3D01E3243D01E37B3C01E3523C01E3233C01E37A3B01E3513B01E3283B01E37F3A01E3563A01E3263A01E37D3901E3543901E32B3901E3023901E3523801E3293801E3003801E3583701E32F3701E37F3608E3063701E30C3701E31A3713E3063701E37F360A833E4004E30D4002933F642CE36C3F01E3653F01E3583F01E34A3F01E3133F01E3783E01E3563E01E33B3E01E3183E01E37D3D01E35B3D01E3393D01E31E3D01E37B3C01E3603C01E33E3C01E31C3C01E3003C01E35E3B01E3433B01E3213B01E37F3A1F833F4000E3004000934164840EE30F4102E3084101E3014101E37A4001E3744001E36D4001E3664001E35F4001E3584001E3514001E34B4001E3444002E33D4001E3364001E32F4001E3284001E3224001E31B4001E3144001E30D4001E3064001E3004001E37A3F02E3733F01E36C3F01E3653F01E35E3F01E3583F01E3513F01E34A3F01E3433F01E33C3F01E3353F01E32F3F02E3283F01E3213F01E31A3F01E3133F01E30C3F01E3063F01E37F3E01E3783E01E3713E01E36A3E01E3633E01E36A3E01E3713E01E37F3E01E3063F01E3133F01E31A3F01E3213F01E32F3F01E3353F01E3433F01E34A3F01E3513F01E35E3F01E3653F01E3733F01E37A3F01E3004001E30D4001E3144001E3224001E3284001E32F4001E33D4001E3444001E3514001E3584001E35F4001E36D4001E3744001E3014101E3084101E30F4101E31D4101E3234101E3314101E3384101E33F4101E34C4101E3534101E3614101E36E4101E37C4101E3114202E3174202E31E4201E3254202E32C4201E3334201E32C4201E31E4201E3114201E3034201E3754101E36E4101E3614101E3534101E3454101E3384101E3314101E3234101E3164101E3084101E37A4001E3744001E3664001E3584001E34B4001E33D4001E3364001E3284001E31B4001E30D4001E3004001E3733F01E36C3F01E35E3F01E3513F01E3433F01E3353F01E32F3F01E3213F01E3133F01E3063F01E3783E01E3713E01E3633E01E3563E01E3483E01E33B3E01E3343E01E3263E01E3183E01E30B3E01E37D3D01E36F3D01E37D3D01E30B3E01E3183E01E32D3E01E33B3E01E3483E01E3563E01E36A3E01E3783E01E3063F01E3133F01E3283F01E3353F01E3433F01E3513F01E3653F01E3733F01E3004001E30D4001E3224001E32F4001E33D4001E34B4001E35F4001E36D4001E37A4001E3084101E31D4101E32A4101E3384101E3454101E35A4101E3684101E3754101E3034201E3174201E3254201E3334201E3404201E3554201E3624201E3704201E37E4201E3124301E3204301E32E4301E3424301E3344301E3204301E30B4301E37E4201E3694201E3554201E3474201E3334201E31E4201E3114201E37C4101E3684101E35A4101E3454101E3314101E31D4101E30F4101E37A4001E3664001E3584001E3444001E32F4001E3224001E30D4001E37A3F01E36C3F01E3583F01E3433F01E3353F01E3213F01E30C3F01E3783E01E36A3E01E3563E01E3413E01E3343E01E31F3E01E30B3E01E37D3D01E3693D01E3543D01E3463D01E3323D01E31E3D01E3103D01E37B3C01E3673C01E3523C01E3603C01E3753C01E3093D01E31E3D01E3323D01E3463D01E35B3D01E36F3D01E3043E01E3123E01E3263E01E33B3E01E34F3E01E3633E01E3783E01E30C3F01E3213F01E3353F01E3433F01E3583F01E36C3F01E3004001E3144001E3284001E33D4001E3514001E3664001E3744001E3084101E31D4101E3314101E3454101E35A4101E36E4101E3034201E3174201E3254201E33A4201E34E4201E3624201E3774201E30B4301E3204301E3344301E3494301E35D4301E36B4301E3004401E36B4301E3574301E3424301E32E4301E3194301E3054301E3704201E35C4201E3474201E32C4201E3174201E3034201E36E4101E35A4101E3454101E3314101E31D4101E3084101E3744001E3584001E3444001E32F4001E31B4001E3064001E3733F01E35E3F01E34A3F01E3353F01E3213F01E3063F01E3713E01E35D3E01E3483E01E3343E01E31F3E01E30B3E01E3763D01E3623D01E34D3D01E3323D01E31E3D01E3093D01E3753C01E3603C01E34C3C01E3373C01E3233C01E30E3C01E37A3B01E35E3B01E3733B01E30E3C01E3233C01E33E3C01E3523C01E36E3C01E3093D01E31E3D01E3393D01E34D3D01E3693D01E3043E01E3183E01E3343E01E3483E01E3633E01E3783E01E3133F01E32F3F01E3433F01E35E3F01E3733F01E30D4001E3284001E33D4001E3584001E36D4001E3084101E3234101E3384101E3534101E3684101E3034201E3174201E3334201E34E4201E3624201E37E4201E3124301E32E4301E3494301E35D4301E3794301E30D4401E3284401E3444401E32F4401E31B4401E3004401E36B4301E3574301E33B4301E3274301E3124301E3774201E3624201E34E4201E3334201E31E4201E30A4201E36E4101E35A4101E3454101E32A4101E3164101E3014101E3664001E3514001E33D4001E3224001E30D4001E37A3F01E35E3F01E34A3F01E3353F01E31A3F01E3063F01E3713E01E3563E01E3413E01E32D3E01E3123E01E37D3D01E3693D01E34D3D01E3393D01E3243D01E3093D01E3753C01E3603C01E3453C01E3303C01E31C3C01E3003C01E36C3B01E3583B01E33C3B01E3513B01E36C3B01E3073C01E3233C01E33E3C01E3523C01E36E3C01E3093D01E3243D01E3403D01E3543D01E36F3D01E30B3E01E3263E01E3413E01E3563E01E3713E01E30C3F01E3283F01E3433F01E3583F01E3733F01E30D4001E3284001E3444001E3584001E3744001E30F4101E32A4101E3454101E35A4101E3754101E3114201E32C4201E3474201E35C4201E3774201E3124301E32E4301E3494301E35D4301E3794301E3144401E32F4401E34B4401E3224403E3144401E30D4401E3444401E3284401E30D4401E3724301E3504301E3344301E3194301E3774201E35C4201E3404201E31E4201E3034201E3684101E34C4101E32A4101E30F4101E3744001E3514001E3364001E31B4001E37A3F01E35E3F01E3433F01E3283F01E3063F01E36A3E01E34F3E01E32D3E01E3123E01E3763D01E3543D01E3393D01E31E3D01E3023D01E3603C01E3453C01E3293C01E3073C01E36C3B01E3513B01E32F3B03E33C3B01E3513B01E36C3B01E3073C01E3233C01E33E3C01E3593C01E3753C01E3103D01E32B3D01E3403D01E35B3D01E3763D01E3123E01E32D3E01E3483E01E3633E01E37F3E01E31A3F01E32F3F01E34A3F01E3653F01E3004001E31B4001E3364001E3514001E36D4001E3084101E31D4101E3384101E3534101E36E4101E30A4201E3254201E3404201E35C4201E3774201E30B4301E3274301E3424301E35D4301E3794301E3144401E32F4401E34B4401E3664401E3514401E3364401E3224401E3064401E3724301E3574301E3424301E3274301E30B4301E3774201E35C4201E3474201E32C4201E3174201E37C4101E3614101E34C4101E3314101E31D4101E3014101E36D4001E3514001E3364001E3224001E3064001E3733F01E3583F01E3433F01E3283F01E30C3F01E3783E01E35D3E01E3483E01E32D3E01E3183E01E37D3D01E3623D01E34D3D01E3323D01E31E3D01E3023D01E36E3C01E3523C01E3373C01E3233C01E3073C01E3733B01E3583B01E3433B01E3283B0183414000E30C3B01E3283B01E3433B01E35E3B01E37A3B01E3153C01E3303C01E34C3C01E3673C01E3023D01E31E3D01E3393D01E3543D01E36F3D01E30B3E01E3263E01E3413E01E35D3E01E3783E01E3133F01E32F3F01E34A3F01E3653F01E3004001E31B4001E3364001E3514001E36D4001E3084101E3234101E33F4101E35A4101E3754101E3114201E32C4201E3474201E3624201E37E4201E3194301E3344301E3504301E36B4301E3064401E3224401E33D4401E3584401E3744401E3164501E37A4401E35F4401E3444401E3284401E30D4401E3724301E3574301E33B4301E3204301E3054301E3694201E34E4201E3334201E3174201E37C4101E3614101E3454101E32A4101E30F4101E3744001E3584001E33D4001E3224001E3064001E36C3F01E3513F01E3353F01E31A3F01E37F3E01E3633E01E3483E01E32D3E01E3123E01E3763D01E35B3D01E3403D01E3243D01E3093D01E36E3C01E3523C01E3373C01E31C3C01E3003C01E3653B01E34A3B01E3004033933E640C833E4006933E6418833E4006933E6417E3733F01E34A3F01E3213F01E3783E01E34F3E01E3263E01E3763D01E34D3D01E3243D01E37B3C01E3523C01E3233C01E37A3B01E3513B01E3283B01E37F3A01E3563A01E3263A01E37D3901E3543901E32B3901E3023901E3523801E3293801E3003801E3583701E32F3701E37F3608E3063701E30C3701E31A3713E3063701E37F360EE30D4002833E4000933F642CE36C3F01E3653F01E3583F01E34A3F01E3133F01E3783E01E3563E01E33B3E01E3183E01E37D3D01E35B3D01E3393D01E31E3D01E37B3C01E3603C01E33E3C01E31C3C01E3003C01E35E3B01E3433B01E3213B01E37F3A1F833F4000E3004000934164840EE30F4102E3084101E3014101E37A4001E3744001E36D4001E3664001E35F4001E3584001E3514001E34B4001E3444002E33D4001E3364001E32F4001E3284001E3224001E31B4001E3144001E30D4001E3064001E3004001E37A3F02E3733F01E36C3F01E3653F01E35E3F01E3583F01E3513F01E34A3F01E3433F01E33C3F01E3353F01E32F3F02E3283F01E3213F01E31A3F01E3133F01E30C3F01E3063F01E37F3E01E3783E01E3713E01E36A3E01E3633E01E36A3E01E3713E01E37F3E01E3063F01E3133F01E31A3F01E3213F01E32F3F01E3353F01E3433F01E34A3F01E3513F01E35E3F01E3653F01E3733F01E37A3F01E3004001E30D4001E3144001E3224001E3284001E32F4001E33D4001E3444001E3514001E3584001E35F4001E36D4001E3744001E3014101E3084101E30F4101E31D4101E3234101E3314101E3384101E33F4101E34C4101E3534101E3614101E36E4101E37C4101E3114202E3174202E31E4201E3254202E32C4201E3334201E32C4201E31E4201E3114201E3034201E3754101E36E4101E3614101E3534101E3454101E3384101E3314101E3234101E3164101E3084101E37A4001E3744001E3664001E3584001E34B4001E33D4001E3364001E3284001E31B4001E30D4001E3004001E3733F01E36C3F01E35E3F01E3513F01E3433F01E3353F01E32F3F01E3213F01E3133F01E3063F01E3783E01E3713E01E3633E01E3563E01E3483E01E33B3E01E3343E01E3263E01E3183E01E30B3E01E37D3D01E36F3D01E37D3D01E30B3E01E3183E01E32D3E01E33B3E01E3483E01E3563E01E36A3E01E3783E01E3063F01E3133F01E3283F01E3353F01E3433F01E3513F01E3653F01E3733F01E3004001E30D4001E3224001E32F4001E33D4001E34B4001E35F4001E36D4001E37A4001E3084101E31D4101E32A4101E3384101E3454101E35A4101E3684101E3754101E3034201E3174201E3254201E3334201E3404201E3554201E3624201E3704201E37E4201E3124301E3204301E32E4301E3424301E3344301E3204301E30B4301E37E4201E3694201E3554201E3474201E3334201E31E4201E3114201E37C4101E3684101E35A4101E3454101E3314101E31D4101E30F4101E37A4001E3664001E3584001E3444001E32F4001E3224001E30D4001E37A3F01E36C3F01E3583F01E3433F01E3353F01E3213F01E30C3F01E3783E01E36A3E01E3563E01E3413E01E3343E01E31F3E01E30B3E01E37D3D01E3693D01E3543D01E3463D01E3323D01E31E3D01E3103D01E37B3C01E3673C01E3523C018341400093416403E3733F813D83414000933C648140833C4000934164811083414000934064817083404000933A648300833A4000933A2930833A4000933B3130833B4000933A3A30833A4000933B4330833B4000933A4B30833A4000933B5430833B4000933A5D30833A4000933B6630833B40A57093376630833740009339663083394000933B6630833B4000933766814083374000933766814083374000933766814083374000933766814083374000933A668140833A4000933A668140833A4000933A668140833A4000933A668140833A4081289348668157E3653F018348400093486601E36C3F01E3733F01E37A3F02E3004001E3064001E30D4002E3144001E31B4001E3224002E3284001E32F4001E3364002E33D4001E3444001E34B4002E3444001E33D4001E3364001E32F4001E3284001E3224001E31B4001E3144002E30D4001E3064001E3004001E37A3F01E3733F01E36C3F01E3653F01E35E3F02E3583F01E3513F01E34A3F01E3433F01E33C3F01E3353F01E32F3F01E3283F01E3213F01E32F3F01E3433F01E3513F01E3653F01E37A3F01E3064001E31B4001E3284001E33D4001E3514001E35F4001E3744001E3014101E3164101E32A4101E3384101E34C4101E35A4101E36E4101E3034204E36E4101E35A4101E3454101E3314101E31D4101E3084101E36D4001E3584001E3444001E32F4001E31B4001E3064001E3733F01E3583F01E3433F01E32F3F01E31A3F01E3063F01E3713E01E35D3E01E3413E01E32D3E01E3183E01E3043E01E34D3D01E3693D01E30B3E01E32D3E01E3483E01E36A3E01E30C3F01E3283F01E34A3F01E36C3F01E3064001E3284001E34B4001E3664001E3084101E32A4101E3454101E3684101E30A4201E3254201E3474201E3694201E3054301E3274301E3494301E36B4301E3494301E3274301E37E4201E35C4201E33A4201E3114201E36E4101E3454101E3234101E3014101E3584001E3364001E30D4001E36C3F01E34A3F01E3213F01E37F3E01E3563E01E3343E01E3123E01E3693D01E3463D01E31E3D01E3403D01E3623D01E30B3E01E32D3E01E34F3E01E3783E01E31A3F01E3433F01E3653F01E3064001E32F4001E3514001E3744001E31D4101E33F4101E3684101E30A4201E32C4201E3554201E3774201E3194301E3424301E3644301E30D4401E3644301E33B4301E3124301E3694201E3404201E3174201E36E4101E3454101E31D4101E3744001E34B4001E3224001E37A3F01E3513F01E3283F01E37F3E01E3563E01E32D3E01E3043E01E35B3D01E3323D01E3093D01E3603C01E3303C01E3593C01E3023D01E32B3D01E3543D01E37D3D01E3263E01E34F3E01E3783E01E3213F01E34A3F01E3733F01E31B4001E34B4001E3744001E31D4101E3454101E36E4101E3174201E3404201E3694201E3124301E33B4301E3644301E30D4401E3364401E3664401E32F4401E3724301E3344301E37E4201E3404201E3034201E3454101E30F4101E3514001E3144001E3583F01E3213F01E3633E01E3263E01E36F3D01E3323D01E3753C01E3373C01E3003C01E3433B01E3063B01E3483A01E37F3A01E33C3B01E37A3B01E3303C01E36E3C01E32B3D01E3693D01E31F3E01E35D3E01E31A3F01E3583F01E30D4001E34B4001E3084101E33F4101E37C4101E33A4201E3774201E32E4301E36B4301E3284401E3664401E3364401E3004401E3494301E3194301E3624201E32C4201E37C4101E3454101E30F4101E35F4001E3284001E3733F01E3433F01E30C3F01E3563E01E3263E01E36F3D01E3393D01E3093D01E3523C01E31C3C01E36C3B01E3353B01E37F3A01E34F3A01E3183A01E3623901E32B3901E3763901E3483A01E31A3B01E36C3B01E33E3C01E3103D01E3623D01E3343E01E3063F01E3583F01E3224001E3744001E3454101E3174201E3694201E33B4301E30D4401E35F4401E3314501E3034601E3554601E31E4601E3614501E3234501E3664401E3284401E3724301E3344301E3774201E33A4201E37C4101E33F4101E3084101E34B4001E30D4001E3513F01E3133F01E3563E01E31F3E01E3623D01E3243D01E3673C01E3293C01E36C3B01E3353B01E3783A0183484000E33B3A01E37D3901E3403901E3023901E34D3901E3183A01E36A3A01E3353B01E3073C01E3523C01E31E3D01E36F3D01E33B3E01E30C3F01E3583F01E3224001E3744001E33F4101E3114201E35C4201E3274301E3794301E3444401E3164501E333460093466601E36E4501E32A4501E3664401E3224401E35D4301E3194301E34E4201E30A4201E3454101E3014101E33D4001E37A3F01E32F3F01E36A3E01E3263E01E3623D01E31E3D01E3593C01E35E3F02E3653F02E36C3F02E3733F01E37A3F02E3004002E3064001E30D4002E3144002E31B4001E3224002E3284002E32F4001E3364002E33D4002E3444001E34B4002E3514002E3584002E35F4001E3664002E36D4002E3744001E37A4002E3014102E3084101E30F4102E3164102E31D4101E3234102E32A4102E3314101E3384102E33F4102E3454101E34C4102E3534102E35A4102E3614101E3684102E36E4102E3754101E37C4102E3034202E30A4201E3114202E3174202E31E4201E3254202E32C4202E3334201E33A4202E3404202E3474202E34E4201E3554202E35C4202E3624201E3694202E3704202E3774201E37E4202E3054302E30B4301E3124302E3194302E3204301E3274302E32E4302E3344301E33B4302E3424302E3494302E3504301E3574302E35D4302E3644301E36B4302E3724302E3794301E3004402E3064402E30D4401E3144402E31B4402E3224401E3284402E32F4402E3364402E33D4401E3444402E34B4402E3514401E3584402E35F4402E3664401E36D4402E3744402E37A4401E3014502E3084502E30F4501E3164502E31D4502E3234501E32A4502E3314502E3384502E33F4501E3454502E34C4502E3534501E35A4502E3614502E3684501E36E4502E37545018346400093466601E37C4501E3034602E30A4602E3114601E3174602E31E4602E3254602E32C4601E3334602E33A4602E3404601E3474602E34E4602E3554601E35C4602E3624602E3694601E3704602E3774602E37E4601E3054702E30B4702E3124701E3194702E3204702E3274702E32E4701E3344702E33B4702E3424701E3494702E3504702E3574701E35D4702E3644702E36B4701E3724702E3794702E3004801E3064802E30D4802E3144802E31B4801E3224802E3284802E32F4801E3364802E33D4802E3444801E34B4802E3514802E3584801E35F4802E3664802E36D4801E3744802E37A4802E3014901E3084902E30F4902E3164902E31D4901E3234902E32A4902E3314901E3384902E33F4902E3454901E34C4902E3534902E35A4901E3614902E3684902E36E4901E3754902E37C4902E3034A02E30A4A01E3114A02E3174A02E31E4A01E3254A02E32C4A02E3334A01E33A4A02E3404A02E3474A01E34E4A02E3554A02E35C4A01E3624A02E3694A02E3704A01E3774A02E37E4A02E3054B02E30B4B01E3124B02E3194B02E3204B01E3274B02E32E4B02E3344B01E33B4B02E3424B02E3494B01E3504B02E3574B02E35D4B01E3644B02E36B4B02E3695201E3625201E35C5201E355520183464000E347520093416601E3405201E33A5201E3335201E3255201E31E5201E3175201E3115201E3035201E37C5101E3755101E3685101E3615101E35A5101E3535101E3455101E33F5101E3385101E3315101E3235101E31D5101E3165101E30F5101E3015101E37A5001E3745001E3665001E35F5001E3585001E3515001E3445001E33D5001E3365001E32F5001E3225001E31B5001E3145001E30D5001E3005001E3794F01E3724F01E3644F01E35D4F01E3574F01E3504F01E3424F01E33B4F01E3344F01E32E4F01E3204F01E3194F01E3124F01E30B4F01E37E4E01E3774E01E3704E01E3624E01E35C4E01E3554E01E34E4E01E3404E01E33A4E01E3334E01E32C4E01E31E4E01E3174E01E3114E01E30A4E01E37C4D01E3754D01E36E4D01E3614D01E35A4D01E3534D01E34C4D01E33F4D01E3384D01E3314D01E32A4D01E31D4D01E3164D01E30F4D01E3014D01E37A4C01E3744C01E36D4C01E35F4C01E3584C01E3514C01E34B4C01E33D4C01E3364C01E32F4C01E3284C01E31B4C01E3144C01E30D4C01E3004C01E3794B01E3724B01E36B4B01E35D4B01E3574B01E3504B01E3494B01E33B4B01E3344B01E32E4B01E3274B01E3194B01E3124B01E30B4B01E37E4A01E3774A01E3704A01E3694A01E35C4A01E3554A01E34E4A01E3474A01E33A4A01E3334A01E32C4A01E3254A01E3174A01E3114A01E30A4A01E37C4901E3754901E36E4901E3684901E35A4901E3534901E34C4901E3454901E3384901E3314901E32A4901E3234901E3164901E30F4901E3084901E37A4801E3744801E36D4801E3664801E3584801E3514801E34B4801E3444801E3364801E32F4801E3284801E31B4801E3144801E30D4801E3064801E3794701E3724701E36B4701E3644701E3574701E3504701E3494701E3424701E3344701E32E4701E3274701E3194701E3124701E30B4701E3054701E3774601E3704601E3694601E3624601E3554601E34E4601E3474601E3404601E3334601E32C4601E3254601E3174601E3114601E30A4601E3034601E3754501E36E4501E3684501E3614501E353450183414000E34C450093416601E3454501E33F4501E3314501E32A4501E3234501E3164501E30F4501E3084501E3014501E3744401E36D4401E3664401E35F4401E3514401E34B4401E3444401E33D4401E32F4401E3284401E3224401E3144401E30D4401E3064401E3004401E3724301E36B4301E3644301E35D4301E3504301E3494301E3424301E33B4301E32E4301E3274301E3204301E3124301E30B4301E3054301E37E4201E3704201E3694201E3624201E35C4201E34E4201E3474201E3404201E3334201E32C4201E3254201E31E4201E3114201E30A4201E3034201E37C4101E36E4101E3684101E3614101E35A4101E34C4101E3454101E33F4101E3314101E32A4101E3234101E31D4101E30F4101E3084101E3014101E37A4001E36D4001E3664001E35F4001E3584001E34B4001E3444001E3733F4BE36C3F05E3653F09E35E3F07E3583F11E30640038341400093466649E3364801E32F4801E3224801E3144801E30D4801E3004801E3724701E3644701E35D4701E3504701E3424701E33B4701E32E4701E3204701E3124701E30B4701E37E4601E3704601E3624601E3704601E37E4601E30B4701E3194701E3274701E33B4701E3494701E3574701E3644701E3724701E3004801E3144801E3224801E32F4801E33D4801E34B4801E3584801E36D4801E3514801E3364801E31B4801E3004801E35D4701E3424701E3274701E30B4701E3694601E3774601E3054701E3194701E3274701E33B4701E3494701E35D4701E36B4701E3004801E30D4801E3224801E32F4801E3444801E3514801E3664801E3584801E3444801E32F4801E31B4801E3064801E3724701E3644701E3504701E33B4701E3274701E3124701E37E4601E3694601E37E4601E3194701E3344701E3494701E3644701E3004801E31B4801E32F4801E34B4801E3664801E37A4801E3164901E3314901E34C4901E3164901E35F4801E3284801E3724701E33B4701E3054701E34E4601E3114601E3254601E33A4601E34E4601E3624601E3774601E3124701E3274701E33B4701E3504701E3644701E3004801E3144801E3284801E33D4801E3514801E3664801E3014901E3164901E32A4901E33F4901E3534901E36E4901E34C4901E3234901E3014901E3584801E32F4801E30D4801E3644701E33B4701E3194701E3704601E3474601E35C4601E3774601E30B4701E3274701E33B4701E3574701E36B4701E3064801E3224801E3364801E3514801E3664801E3014901E3164901E3314901E3454901E3614901E37C4901E3534901E32A4901E3014901E3584801E32F4801E3064801E35D4701E3344701E30B4701E35C4601E3694601E37E4601E3124701E3274701E33B4701E3504701E3644701E3794701E30D4801E3224801E3364801E3444801E3584801E36D4801E3014901E3164901E32A4901E33F4901E3534901E3684901E37C4901E3114A01E3254A01E3114A01E30A4A01E3034A01E3754901E3684901E3614901E3534901E3454901E33F4901E3314901E3234901E3164901E30F4901E3014901E3744801E36D4801E35F4801E3514801E3444801E33D4801E32F4801E3224801E31B4801E30D4801E3004801E3794701E36B4701E35D4701E3504701E3494701E33B4701E32E4701E3274701E3194701E30B4701E37E4602E3733F22834640009344663C834440009346661883464000934B6618834B4000934666188346400093446618834440009346661883464000934B6618834B4000934666188346400093446618834440009346661883464000934B6618834B4000934666188346400093446618834440009346661383464000934B6613834B4000934666128346400093446613834440009346661383464000934B6612834B4000934666138346400093446613834440009346661383464000934B6613834B4000934666128346400093446613834440039346661183464000934B6610834B4000934666118346400093446610834440009346661183464000934B660F834B4000934666108346400093446611834440009346661083464000934B6612834B40009346660F834640009344661183444007934C660C934E6607834C4005934A6607834E4005934C6607834A400593486607834C4005934A66078348400593456607834A400593476607834540059343640783474005934561078343400593415F078345400593435D0783414005933F5A078343400593415807833F4005933D560783414005933F5307833D4005933B5107833F4005933D4E07833B400593394C07833D4005933B4A078339400593384707833B4005933A43078338400593363E07833A40059338380783364005933533078338400593372D07833540059333280783374005933622078333400C83364041934466189341660783444011934666078341401883464011934D662B834D4005934D66812F834D400593546667835440059353661F835340059354661F835440059353661F835340059354661F83544005935666810B8356400593546643835440059356661893516613835640059354661383514005934D66138354400593516613834D4005934A661383514005934D6613834A400593486613834D4005934A66138348400593456613834A4005934866138345400593426613834840059345661383424005933F66138345400593426613833F401883424005933D6624933F6607833D401D93416607833F40248341401193436681478343400593486631E36C3F08E3653F07E35E3F08E3583F08E3513F07E34A3F08E3433F07E33C3F08E3353F08E32F3F07E3283F08E3213F07E31A3F048348400093486604E3133F08E30C3F07E3063F08E37F3E08E3783E07E3713E08E36A3E07E3633E08E35D3E08E3563E07E34F3E08E3483E07E3413E08E33B3E08E3343E07E32D3E08E3263E08E31F3E07E3183E038348400093486605E3123E07E30B3E08E3043E08E37D3D07E3763D08E36F3D07E3693D08E3623D08E35B3D07E3543D08E34D3D08E3463D07E3403D08E3393D07E3323D08E32B3D08E3243D07E31E3D08E3173D028348400093486605E3103D810B83484000934866811083484000934966309347660783494013E31E3D02E3243D01E32B3D02E3393D01E3403D01E34D3D03E35B3D02E37D3D01E35D3E01E300400383474005934D668140834D4000934D66813DE3064002E3004001834D4000934D6601E37A3F02E3733F02E36C3F02E3653F02E35E3F02E3583F02E3513F02E34A3F01E3433F04E3353F06E32F3F05E3283F05E3213F06E31A3F05E3133F05E30C3F06E3063F05E37F3E05E3783E06E3713E05E36A3E05E3633E06E35D3E05E3563E05E34F3E06E3483E05E3413E05E33B3E06E3343E05E32D3E05E3263E06E31F3E05E3183E05E3123E06E30B3E05E3043E05E37D3D06E3763D05E36F3D05E3693D06E3623D05E35B3D01834D4000934D6604E3543D05E34D3D06E3463D05E3403D05E3393D06E3323D05E32B3D05E3243D06E31E3D05E3173D05E3103D06E3093D05E3023D05E37B3C06E3753C05E36E3C05E3673C06E3603C05E3593C05E3523C06E34C3C05E3453C05E33E3C06E3373C05E3303C05E3293C06E37A3F04E3004018E3064014E30D4001834D4000934D668140834D4000934D668140834D40009348661883484000934A6618834A40009348661883484000934A6618834A40009348661883484000934A6618834A40009348661883484000934966188349400093476618834740009345661883454000934366188343400093416618834140009340661883404000933F6618833F4000934D6660834D4000934C6630834C4000934D6630834D4000934A6630834A4000934D6630834D40009346666083464000934A6618834A4000934866188348400093446618834440009348663C8348400BE300400193486601E3064002E30D4001E3144002E31B4002E3224001E3284002E32F4002E3364001E33D4002E3444002E34B4001E3514002E3584001E35F4001E3584001E3514001E34B4001E3444001E33D4001E3364001E32F4001E3284001E31B4001E3144001E30D4001E3064001E3004001E37A3F01E3733F01E36C3F01E3653F01E3583F01E3513F01E34A3F01E3433F01E33C3F01E3353F01E32F3F01E3283F01E31A3F01E3213F01E32F3F01E3353F01E3433F01E34A3F01E3583F01E35E3F01E36C3F01E3733F01E3004001E3064001E3144001E31B4001E3284001E32F4001E33D4001E3444001E3514001E3584001E3664001E3744001E36D4001E3664001E3584001E3514001E3444001E33D4001E32F4001E3284001E31B4001E3144001E30D4001E3004001E37A3F01E36C3F01E3653F01E3583F01E3513F01E3433F01E33C3F01E3353F01E3283F01E3213F01E3133F01E30C3F01E37F3E01E3783E01E36A3E01E3783E01E30C3F01E31A3F01E32F3F01E33C3F01E3513F01E35E3F01E3733F01E3064001E3144001E3284001E3364001E34B4001E3584001E36D4001E37A4001E30F4101E3234101E3314101E3454101E3534101E3684101E3754101E30A4201E31E4201E3034201E3684101E34C4101E3314101E3164101E37A4001E35F4001E3444001E3284001E30D4001E3733F01E3583F01E33C3F01E3213F01E3063F01E36A3E01E34F3E01E3343E01E3183E01E37D3D01E3623D01E3463D01E35B3D01E3763D01E3123E01E32D3E01E3483E01E35D3E01E3783E01E3133F01E32F3F01E34A3F01E35E3F01E37A3F01E3144001E32F4001E34B4001E35F4001E37A4001E3164101E3314101E34C4101E3614101E37C4101E3174201E3334201E34E4201E3334201E3114201E36E4101E3534101E3314101E30F4101E36D4001E3514001E32F4001E30D4001E36C3F01E3513F01E32F3F01E30C3F01E3713E01E3103D01E31E3D01E3323D01E3463D01E3543D01E3693D01E37D3D01E30B3E01E31F3E01E3343E01E3413E01E3563E01E36A3E01E3783E01E30C3F01E3213F01E32F3F01E3433F01E3583F01E3653F01E37A3F01E30D4001E31B4001E32F4001E3444001E3514001E3664001E37A4001E3084101E31D4101E3314101E33F4101E3534101E3684101E37C4101E3534101E32A4101E36C3F0D93386602E3733F0FE37A3F0FE300400EE306400883484001E3004081098338400093386681408338400093386681408338400093386678833840009335663083354000933666308336400093386681288338400093386681408338400093386681408338400093386681108338400093356630833540009338663083384000933C668110833C4000933C668140833C4000933C668140833C4000933C668110833C400093366630833640009339663083394000933C668140833C4000933C667DE300402DE32F4001E35F4001E30F4101E33F4101E36E4101E31E4201E34E4201E37E4201E32E4301E35D4301E30D4401E33D4401E36D4401E31D4501E34C4501E37C4501E32C4601E35C4601E30B4701E33B4701E36B4701E31B4801833C4000E3514800933C6608E34B4810E344483BE33D4802E3364802E32F4802E3284801E3224802E31B4802E3144802E30D4801E3064802E3004802E3794702E3724701E36B4701E3724701E3794701E3064801E30D4801E31B4801E3224801E32F4801E3364801E3444801E34B4801E3584801E35F4801E36D4801E3744801E3014901E3084901E3164901E31D4901E32A4901E3314901E33F4901E32A4901E30F4901E3744801E3584801E33D4801E3224801E3064801E36B4701E3504701E3584801E3504701E3574701E35D4701E36B4701E3724701E3794701E3064801E30D4801E3144801E3224801E3284801E3364801E33D4801E3444801E3514801E3584801E35F4801E36D4801E3744801E3014901E3084901E30F4901E31D4901E3234901E32A4901E3384901E33F4901E35A4901E3614901E3684902E3614901E34C4901E3384901E31D4901E3084901E36D4801E3584801E33D4801E3284801E30D4801E3794701E35D4701E3494701E32E4701E3194701E37E4601E3124701E3274701E33B4701E3504701E3644701E3794701E30D4801E3224801E3364801833C4000E34B4800933C6601E35F4801E3744801E3084901E31D4901E3314901E3454901E35A4901E36E4901E3034A01E3174A01E32C4A01E3114A01E36E4901E34C4901E32A4901E30F4901E36D4801E34B4801E3284801E30D4801E36B4701E3494701E3274701E3054707E3194701E32E4701E3424701E35D4701E3724701E3064801E31B4801E3364801E34B4801E35F4801E3744801E30F4901E3234901E3384901E34C4901E3684901E37C4901E3114A01E32C4A01E3174A01E3034A01E36E4901E35A4901E3454901E3314901E3164901E3014901E36D4801E3584801E3444801E32F4801E3144801E3004801E36B4701E3574701E3424701E32E4701E30B4701E3194701E3274701E33B4701E3494701E35D4701E36B4701E3004801E30D4801E3224801E32F4801E3444801E3514801E3664801E3744801E3084901E3164901E32A4901E3384901E34C4901E35A4901E37C4901E3034A01E3114A01E3174A01E3254A01E30A4A01E36E4901E3534901E3314901E3164901E37A4801E3584801E33D4801E3224801E3004801E3644701E3494701E3274704E3344701E3424701E3504701E35D4701E3724701E3004801E30D4801E31B4801E32F4801E33D4801E34B4801E3584801E36D4801E37A4801E3084901E3164901E32A4901E3384901E3454901E3534901E3684901E3754901E3034A01E3174A05E3004036833C40009335668110833540009335668110833540009335668630833540AD66934164248341400C934164188341400D9341640483414014934164048341401493416404834140149341640483414014933F6424833F400C933F6418833F4018933F6404833F4014933F6404833F4014933F6404833F4014933F6404833F4014933F6424833F400C933A6424833A400C933A6404833A4014933A6404833A4014933A6454833A400C933A6424833A4012933A6404833A4014933A6404833A4014933A6404833A4014933A6404833A4001934164248341400C93416418834140189341640483414014934164048341401493416404834140149341640483414014933F6424833F400C933F6418833F4018933F6404833F4014933F6404833F4014933F6404833F4014933F6404833F4014933F6424833F400C933A6424833A400C933A6404833A4014933A6404833A4014933A6454833A4082E574B3650000B3640000B3060C00B30A4000B3076400E3004002B3650000B3640000B3060C00B30A4000B3076400E3004000B3650000B3640000B3060C00B30A4000B3076400E3004000FF2F004D54726B0000012D00FF03055069616E6F00B20A4000B2076400E2004000B2650000B2640000B2060C00B20A4000B2076400E2004000B2650000B2640000B2060C00B20A4000B2076400E2004000B2650000B2640000B2060C00B20A4000B2076400E20040818100923A6460823A4000923C6460823C4000923D6460823D4000923C6460823C4000923A6460823A4000923864608238400092376460823740009235646082354000923C6460823C4000923D6460823D4000923A6460823A4000923F6460823F400092416460824140009235646082354000924164608241400092356460823540879270B2650000B2640000B2060C00B20A4000B2076400E2004002B2650000B2640000B2060C00B20A4000B2076400E2004000B2650000B2640000B2060C00B20A4000B2076400E2004000FF2F004D54726B0000052800FF03044261737300B10A4000B1076400E1004000B1650000B1640000B1060C00B10A4000B1076400E1004000B1650000B1640000B1060C00B10A4000B1076400E1004000B1650000B1640000B1060C00B10A4000B1076400E10040B900913A6460813A4000913C6460813C4000913D6460813D4000913C6460813C4000913A6460813A4000913864608138400091376460813740009135646081354000913C6460813C4000913D6460813D4000913A6460813A4000913F6460813F40009141646081414000913564608135400091416460814140009135646081354000913A6460813A4000913C6460813C4000913D6460813D4000913C6460813C4000913A6460813A4000913864608138400091376460813740009135646081354000913C6460813C4000913D6460813D4000913A6460813A4000913F6460813F40009141646081414000913564608135408140913A6460813A4000913C6460813C4000913A6460813A4000913C6460813C4000913D6460813D40009138646081384000913D6460813D40009138646081384000913D6460813D40009138646081384000913A6460813A400091356460813540009136646081364000913164608131400091356460813540009141646081414000913A648220813A40009138646081384000913D648220813D40009138646081384000913A648220813A4000913C6460813C4000913D648220813D40009138646081384000913A6460813A40009138646081384000913D6460813D40009138646081384000913A6460813A4000913C6460813C4000913D6460813D40009138646081384000913A6460813A400091386460813840009136646081364000913D6460813D4000913C6460813C4000913C6460813C4000913C6460813C4000913C6460813C4000913A648900813A408300913A6460813A4000913C6460813C4000913D6460813D4000913C6460813C4000913A6460813A4000913864608138400091376460813740009135646081354000913C6460813C4000913D6460813D4000913A6460813A4000913F6460813F40009141646081414000913564608135400091416460814140009135646081354000913A6460813A4000913C6460813C4000913D6460813D4000913C6460813C4000913A6460813A4000913864608138400091376460813740009135646081354000913C6460813C4000913D6460813D4000913A6460813A4000913F6460813F40009141646081414000913564608135408140913A6460813A4000913C6460813C4000913A6460813A4000913C6460813C4000913D6460813D40009138646081384000913D6460813D40009138646081384000913D6460813D40009138646081384000913A6460813A400091356460813540009136646081364000913164608131400091356460813540009141646081414000913A648220813A40009138646081384000913D648220813D40009138646081384000913A648220813A4000913C6460813C4000913D648220813D40009138646081384000913A6460813A40009138646081384000913D6460813D40009138646081384000913A6460813A4000913C6460813C4000913D6460813D40009138646081384000913A6460813A400091386460813840009136646081364000913D6460813D4000913C6460813C4000913C6460813C4000913C6460813C4000913C6460813C4000913A648900813A4086D970B1650000B1640000B1060C00B10A4000B1076400E1004002B1650000B1640000B1060C00B10A4000B1076400E1004000B1650000B1640000B1060C00B10A4000B1076400E1004000FF2F004D54726B0000449900FF03084472756D204B697400B00A4000B0076400E0004000B0650000B0640000B0060C00B00A4000B0076400E0004000B0650000B0640000B0060C00B00A4000B0076400E0004000B0650000B0640000B0060C00B00A4000B0076400E000409B00903C64009041648300803C4000903C6400804140009041648300803C4000903C6400804140009041648600903F6406803F401E903F6406803F4018903F6406803F401890426400903F640680424000803F401E903F6406803F4018903F6406803F4018903F6406803F401E903F6406803F4018903F6406803F401890426400903F640680424000803F401E903F6406803F4018903F6406803F4018903F6406803F401E903F6406803F4018903F6406803F401890426400903F640680424000803F401E903F6406803F4018903F6406803F4018903F6406803F401E903F6406803F4018903F6406803F401890426400903F640680424000803F401E903F6406803F4018903F6406803F4018903F6406803F401E903F6406803F4018903F6406803F401890426400903F640680424000803F401E903F6406803F4018903F6406803F4018903F6406803F401E903F6406803F4018903F6406803F401890426400903F640680424000803F401E903F6406803F4018903F6406803F4018903F6406803F401E903F6406803F4018903F6406803F401890426400903F640680424000803F401E903F6406803F4018903F6406803F4018903F6406803F401E903F6406803F4018903F6406803F401890426400903F640680424000803F401E903F6406803F4018903F6406803F4018903F6406803F401E903F6406803F4018903F6406803F401890426400903F640680424000803F401E903F6406803F4018903F6406803F4018903F6406803F401E903F6406803F4018903F6406803F401890426400903F640680424000803F401E903F6406803F4018903F6406803F4018903F6406803F401E903F6406803F4018903F6406803F401890426400903F640680424000803F401E903F6406803F4018903F6406803F4018903F6406803F401E903F6406803F4018903F6406803F40189040640090426400903F64068040400080424000803F40189040640680404000903F6406803F40129040640680404000903F6406803F401890436400903F6400803C4000903C6406803F401E903F6406803F4018903F6406803F4018804340009043640090426400903F6400803C4000903C640680424000803F401E903F6406803F4018903F6406803F40188043400090436400903F6400803C4000903C6406803F401E903F6406803F4018903F6406803F4018804340009043640090426400903F6400803C4000903C6406803F40008042401E903F6406803F4018903F6406803F401880434000903F640090436400803C4000903C6406803F401E903F6406803F4018903F6406803F40188043400090426400903F640090436400803C4000903C640680424000803F401E903F6406803F4018903F6406803F401880434000903F640090436400803C4000903C6406803F401E903F6406803F4018903F6406803F40188043400090426400903F640090436400803C4000903C640680424000803F401E903F6406803F4018903F6406803F40188043400090436400903F6400803C4000903C6406803F401E903F6406803F4018903F6406803F4018804340009043640090426400903F6400803C4000903C6406803F40008042401E903F6406803F4018903F6406803F40188043400090436400903F6400803C4000903C6406803F401E903F6406803F4018903F6406803F4018804340009043640090426400903F6400803C4000903C6406803F40008042401E903F6406803F4018903F6406803F401880434000803C4000903C640090436400903F6406803F401A803C4000903C6404903F6406803F4016803C4000903C6402903F6406803F4017803C4000903C6401804340009043640090426400903F6406803F400080424019803C4000903C6405903F6406803F4016803C4000903C6402903F6406803F401880434000803C4000903C640090436400903F6406803F401A803C4000903C6404903F6406803F4015803C4000903C6403903F6406803F4017803C4000903C64018043400090426400903F6400904064009043640680424000803F401280404007803C4000903C6405903F640090406406803F401280404003803C4000903C6403903F6406803F4000904064188043400080404000803C4000804140009041640090404B00903C64208040400090404B208040400090404B208041400090416400803C4000903C64018040400090404C1F8040400090404C208040400090404D2080414000804040009041640090404D00803C4000903C64208040400090404E208040400090404E208041400090416400803C4000903C64018040400090404F208040400090404F1F8040400090404F2080414000804040009041640090404B00803C4000903C64208040400090404B208040400090404B208041400090416400803C4000903C64018040400090404C1F8040400090404C208040400090404D2080404000804140009041640090404D00803C4000903C64208040400090404E208040400090404E208041400090416400803C4000903C64018040400090404F208040400090404F1F8040400090404F20804040008041400090404B0090416400803C4000903C64208040400090404B208040400090404B20803C4000903C64018040400090404C1F8040400090404C208040400090404D20804140008040400090404D0090416400803C4000903C64208040400090404E208040400090404E20803C4000903C64018040400090404F208040400090404F1F8040400090404F20804140008040400090406500803C4000903C6400904164208040400090406520804040009040641F80404000904063228040400090406220804040009040611F80404000803C4000903C6420803C4000903C6420803C4000903C6420803C4000903C6420803C4000903C6420803C4000903C6420803C4000804140009041640090404B00903C64208040400090404B208040400090404B208041400090416400803C4000903C64018040400090404C1F8040400090404C208040400090404D2080404000804140009041640090404D00803C4000903C64208040400090404E208040400090404E208041400090416400803C4000903C64018040400090404F208040400090404F1F8040400090404F2080414000804040009041640090404B00803C4000903C64208040400090404B208040400090404B208041400090416400803C4000903C64018040400090404C1F8040400090404C208040400090404D2080414000804040009041640090404D00803C4000903C64208040400090404E208040400090404E208041400090416400803C4000903C64018040400090404F208040400090404F1F8040400090404F20804140008040400090404B0090416400803C4000903C64208040400090404B208040400090404B208041400090416400803C4000903C64018040400090404C1F8040400090404C208040400090404D20804040008041400090404D0090416400803C4000903C64208040400090404E208040400090404E208041400090416400803C4000903C64018040400090404F208040400090404F1F8040400090404F20804040008041400090404B0090416400803C4000903C64208040400090404B208040400090404B20803C4000903C64018040400090404C1F8040400090404C208040400090404D20804140008040400090404D0090416400803C4000903C64208040400090404E208040400090404E20803C4000903C64018040400090404F208040400090404F1F8040400090404F20804040008041400090416400803C4000903C644890406448903D6430803C4000903C646090416400803C4000903C64608041400080414000803C4000903C6420803C4000903C6420803C4000903C6420803C4000903C6420803C4000903C6420803C4000903C6420803C4060904164608041400090416400903C64488040400090406448803D4000903D643080414000803C4000903C646090416400803C4000903C646080414060803C4000903C6420803C4000903C6420803C4000903C6420803C4000903C6420803C4000903C6420803C4000903C6420803C40009041646080414000904164008040400090404B208040400090404B208040400090404B2080414000904164018040400090404C1F8040400090404C208040400090404D2080404000804140009041640090404D208040400090404E208040400090404E2080414000904164018040400090404F208040400090404F1F8040400090404F20804140008040400090404B00904164208040400090404B208040400090404B2080414000904164018040400090404C1F8040400090404C208040400090404D20804140008040400090404D00904164208040400090404E208040400090404E2080414000904164018040400090404F208040400090404F1F8040400090404F20804040008041400090404B00904164208040400090404B208040400090404B2080414000904164018040400090404C1F8040400090404C208040400090404D20804040008041400090404D00904164208040400090404E208040400090404E20804140018040400090404F208040400090404F1F8040400090404F20804040009041640090404B208040400090404B208040400090404B2080414000904164018040400090404C1F8040400090404C208040400090404D2080404000804140009041640090404D208040400090404E208040400090404E2080414000904164018040400090404F208040400090404F1F8040400090404F2080404000804140009041648300804140830090436400903F6406803F401E903F6406803F4018903F6406803F4018804340009043640090426400903F640680424000803F401E903F6406803F4018903F6406803F40188043400090436400903F6406803F401E903F6406803F4018903F6406803F4018804340009043640090426400903F640680424000803F401E903F6406803F4018903F6406803F40188043400090436400903F6406803F401E903F6406803F4018903F6406803F4018804340009043640090426400903F640680424000803F401E903F6406803F4018903F6406803F40188043400090436400903F6406803F401E903F6406803F4018903F6406803F4018804340009043640090426400903F640680424000803F401E903F6406803F4018903F6406803F40188043400090436400903F6406803F401E903F6406803F4018903F6406803F4018804340009043640090426400903F6406803F40008042401E903F6406803F4018903F6406803F40188043400090436400903F6406803F401E903F6406803F4018903F6406803F4018804340009043640090426400903F640680424000803F401E903F6406803F4018903F6406803F40188043400090436400903F6406803F401E903F6406803F4018903F6406803F4018804340009043640090426400903F6406803F40008042401E903F6406803F4018903F6406803F40188043400090436400903F6406803F401E903F6406803F4018903F6406803F4018804340009043640090426400903F6406803F40008042401E903F6406803F4018903F6406803F40188043400090436400903F6406803F401E903F6406803F4018903F6406803F4018804340009043640090426400903F6406803F40008042401E903F6406803F4018903F6406803F40188043400090436400903F6406803F401E903F6406803F4018903F6406803F4018804340009043640090426400903F6406803F40008042401E903F6406803F4018903F6406803F40188043400090436400903C6400903F6406803F401A803C4000903C6404903F6406803F4016803C4000903C6402903F6406803F4017803C4000903C6401804340009043640090426400903F6406803F400080424019803C4000903C6405903F6406803F4016803C4000903C6402903F6406803F401880434000803C400090436400903C6400903F6406803F401A803C4000903C6404903F6406803F4015803C4000903C6403903F6406803F4017803C4000903C64018043400090426400903F6400904064009043640680424000803F401280404007803C4000903C6405903F640090406406803F401280404003803C4000903C6403903F6406803F4000904064188043400080404000803C400090404B0090416400903C64208040400090404B208040400090404B208041400090416400803C4000903C64018040400090404C1F8040400090404C208040400090404D20804040008041400090404D0090416400803C4000903C64208040400090404E208040400090404E208041400090416400803C4000903C64018040400090404F208040400090404F1F8040400090404F2080404000804140009041640090404B00803C4000903C64208040400090404B208040400090404B208041400090416400803C4000903C64018040400090404C1F8040400090404C208040400090404D2080414000804040009041640090404D00803C4000903C64208040400090404E208040400090404E208041400090416400803C4000903C64018040400090404F208040400090404F1F8040400090404F20804140008040400090404B0090416400803C4000903C64208040400090404B208040400090404B20803C4000903C64018040400090404C1F8040400090404C208040400090404D20804140008040400090404D0090416400803C4000903C64208040400090404E208040400090404E20803C4000903C64018040400090404F208040400090404F1F8040400090404F20804140008040400090406500803C4000903C6400904164208040400090406520804040009040641F80404000904063228040400090406220804040009040611F80404000803C4000903C6420803C4000903C6420803C4000903C6420803C4000903C6420803C4000903C6420803C4000903C6420803C400090404B008041400090416400903C64208040400090404B208040400090404B208041400090416400803C4000903C64018040400090404C1F8040400090404C208040400090404D20804040008041400090404D0090416400803C4000903C64208040400090404E208040400090404E208041400090416400803C4000903C64018040400090404F208040400090404F1F8040400090404F2080404000804140009041640090404B00803C4000903C64208040400090404B208040400090404B208041400090416400803C4000903C64018040400090404C1F8040400090404C208040400090404D2080414000804040009041640090404D00803C4000903C64208040400090404E208040400090404E208041400090416400803C4000903C64018040400090404F208040400090404F1F8040400090404F20804140008040400090404B0090416400803C4000903C64208040400090404B208040400090404B208041400090416400803C4000903C64018040400090404C1F8040400090404C208040400090404D20804040008041400090404D0090416400803C4000903C64208040400090404E208040400090404E208041400090416400803C4000903C64018040400090404F208040400090404F1F8040400090404F2080404000804140009041640090404B00803C4000903C64208040400090404B208040400090404B20803C4000903C64018040400090404C1F8040400090404C208040400090404D2080414000804040009041640090404D00803C4000903C64208040400090404E208040400090404E20803C4000903C64018040400090404F208040400090404F1F8040400090404F20804140008040400090416400803C4000903C644890406448803D4000903D6430803C4000903C646090416400803C4000903C64608041400080414000803C4000903C6420803C4000903C6420803C4000903C6420803C4000903C6420803C4000903C6420803C4000903C6420803C4060904164608041400090416400903C64488040400090406448803D4000903D643080414000803C4000903C646090416400803C4000903C646080414060803C4000903C6420803C4000903C6420803C4000903C6420803C4000903C6420803C4000903C6420803C4000903C6420803C40009041646080414000904164008040400090404B208040400090404B208040400090404B2080414000904164018040400090404C1F8040400090404C208040400090404D2080404000804140009041640090404D208040400090404E208040400090404E2080414000904164018040400090404F208040400090404F1F8040400090404F20804140008040400090404B00904164208040400090404B208040400090404B2080414000904164018040400090404C1F8040400090404C208040400090404D20804140008040400090404D00904164208040400090404E208040400090404E2080414000904164018040400090404F208040400090404F1F8040400090404F2080404000804140009041640090404B208040400090404B208040400090404B2080414000904164018040400090404C1F8040400090404C208040400090404D2080404000804140009041640090404D208040400090404E208040400090404E20804140018040400090404F208040400090404F1F8040400090404F208040400090404B00904164208040400090404B208040400090404B2080414000904164018040400090404C1F8040400090404C208040400090404D20804040008041400090404D00904164208040400090404E208040400090404E2080414000904164018040400090404F208040400090404F1F8040400090404F20804040008041400090416400903C552F903C5504803C402D903C5503803C402C903C5504803C40099040551C80404006903C5505803C40099040551C80404006903C5504803C400A9040551C80404006903C5503803C402D903C5504803C402E80414000803D4000903C5501803C402E903C5504803C402D903C5503803C402C903C5504803C402B903C5505803C402B903C5504803C402C903C5503803C402D903C5504803C402E903C5501803C401A803C4015903C551B803C4021903C5527803C402B903C5534803C4014903C5534803C401C9041551C8041408579903C64009041648615803C4000903C6400804140009041648600803C4000903C6400804140009041648600803C4000903C640080414000904164B900803C4000903C2160803C4000903C2560803C4000903C2A60803C4000903C2D60803C4000903C3160803C4000903C3560803C4000903C3960803C4000903C3D60803C4000903C4160803C4000903C4460803C4000903C4860803C4000903C4C60803C4000903C5060803C4000903C556090406430803C4000903C5A308040400090406430803C4000903C5E3080404000904264008041400090416400803C4000903C6460804240009042640090406400803C4000903C64608042400090426400803C4000903C6430903D643080404000804240009042640090406400803C4000903C6430803D4000903D64308040400080424000803D400090426400803C4000903C6460804240009042640090406400803C4000903C64608042400090426400803C4000903C6430903D643080404000804240009042640090406400803C4000903C6430803D4000903D6430803D4000804040008042400090426400803C4000903C6460804240009042640090406400803C4000903C64608042400090426400803C4000903C6430903D643080404000804240009042640090406400803C4000903C6430803D4000903D6430803D4000804040008042400090426400803C4000903C6460804240009042640090406400803C4000903C64608042400090426400803C4000903C6430903D643080404000804240009042640090406400803C4000903C6430803D4000903D6430803D4000804040008042400090426400803C4000903C6460804240009042640090406400803C4000903C64608042400090426400803C4000903C6430903D643080404000804240009042640090406400803C4000903C6430803D4000903D643080424000803D40008040400090426400803C4000903C6460804240009042640090406400803C4000903C64608042400090426400803C4000903C6430903D643080404000804240009042640090406400803C4000903C6430803D4000903D64308042400080404000803D400090426400803C4000903C6460804240009042640090406400803C4000903C64608042400090426400803C4000903C6430903D643080404000804240009042640090406400803C4000903C6430803D4000903D6430803D4000804040008042400090426400803C4000903C6460804240009042640090406400803C4000903C64608042400090426400803C4000903C6430903D643080404000804240009042640090406400803C4000903C6430803D4000903D6430803D4000804040008042400090426400803C4000903C6460804240009042640090406400803C4000903C64608042400090426400803C4000903C6430903D643080404000804240009042640090406400803C4000903C6430803D4000903D6430803D4000804240008040400090426400803C4000903C6460804240009042640090406400803C4000903C64608042400090426400803C4000903C6430903D643080404000804240009042640090406400803C4000903C6430803D4000903D643080424000803D40008040400090426400803C4000903C6460804240009042640090406400803C4000903C64608042400090426400803C4000903C6430903D643080404000804240009042640090406400803C4000903C6430803D4000903D6430803D4000804040008042400090426400803C4000903C6460804240009042640090406400803C4000903C64608042400090426400803C4000903C6430903D643080404000804240009042640090406400803C4000903C6430803D4000903D6430803D4000804040008042400090426400803C4000903C64008041400090416460804240009042640090406400803C4000903C64608042400090426400803C4000903C6430903D643080404000804240009042640090406400803C4000903C6430803D4000903D643080424000803D40008040400090426400803C4000903C6460804240009042640090406400803C4000903C64608042400090426400803C4000903C6430903D643080404000804240009042640090406400803C4000903C6430803D4000903D6430803D4000804240008040400090426400803C4000903C6460804240009042640090406400803C4000903C64608042400090426400803C4000903C6430903D643080404000804240009042640090406400803C4000903C6430803D4000903D643080424000803D40008040400090426400803C4000903C64608042400090426400803C4000903C643090406418804040009040641890436400803C4000903C64008041400090416430903D6430803C4000903C6430803D4000903D6430803D400080424000804040008043400090426400803C4000903C64008041400090416460804240009042640090406400803C4000903C64608042400090426400803C4000903C6430903D643080404000804240009042640090406400803C4000903C6430803D4000903D6430803D4000804040008042400090426400803C4000903C6460804240009042640090406400803C4000903C64608042400090426400803C4000903C6430903D643080404000804240009042640090406400803C4000903C6430803D4000903D643080424000803D40008040400090426400803C4000903C6460804240009042640090406400803C4000903C64608042400090426400803C4000903C6430903D643080404000804240009042640090406400803C4000903C6430803D4000903D643080424000803D40008040400090426400803C4000903C64608042400090426400803C4000903C643090406418804040009040641890436400803C4000903C64008041400090416430903D6430803C4000903C64008041400090416430803D4000903D64308042400080404000803D40008043400090426400803C4000903C64008041400090416460804240009042640090406400803C4000903C64608042400090426400803C4000903C6430903D643080404000804240009042640090406400803C4000903C6430803D4000903D6430803D4000804240008040400090426400803C4000903C6460804240009042640090406400803C4000903C64608042400090426400803C4000903C6430903D643080404000804240009042640090406400803C4000903C64188040400090406418803D400080404000903D6400904064188040400090406418803D4000804040008042400090426400803C4000903C64008041400090416460804240009042640090406400803C4000903C64608042400090426400803C4000903C6430903D643080404000804240009042640090406400803C4000903C6430803D4000903D6430803D4000804240008040400090426400803C4000903C6460804240009042640090406430803C4000903C643080424000804040009042640090406430803C4000903C643080424000804040009042640090406430803C4000903C6430804240008040400090406430803C4000903C64308040400090406430803C4000903C64308040400090406430803C4000903C64308040400090406430803C4000903C6418803C4000903C64188040400090406430803C4000903C64308040400090406430803C4000903C64308040400090406430803C4000903C6430804040009040641880404000904064188040400090406418804040009040641880404000903E64008041400090416460803E4000903E6460803E4000903E6460803E4000903E6460803E4000903E6460803E4000903E6460803E4000903E6460803E4000903E6460803E4000903E6460803E4000903E6460803E4000903E6460803E4000903E6460803E4000903E6460803E4000903E6460803E4000903E6460803E4000903E6460803E4000903E6460803E4000903E6460803E4000903E6460803E4000903E6460803E4000903E6460803E4000903E6460803E4000903E6460803E4000903E6460803E4000903E6460803E4000903E6460803E4000903E6460803E4000903E6460803E4000903E6460803E4000903E6460803E4000903E6460803E4000903E6460803E4000903E6460803E4000903E6460803E4000903E6460803E4000903E6460803E4000903E6460803E4000903E6460803E4000903E6460803E4000903E6460803E4000903E6460803E4000903E6460803E4000903E6460803E4000903E6460803E4000903E648300803E400090406430803C4000903C64308040400090406418804040009040641880404000904064308040400090406430803C4000903C6430903D6430803C4000903C643080404000803D400090436400803C4000903C640080414000904164608043400090436430803C4000903C6418803C4000903C64188043400090436400904064308040400090406430804340009043646080434000904364608040400080434000904364009040643080404000904064308043400090436400803C4000903C6430803C4000903C6430804040008043400090436400904064188040400090406418803C4000903C64308040400080434000904064008041400090416430903D64308040400090406430803D4000903D64308040400090406430803D4000903D64308040400090406430803D4000903D643080404000803D400090406430903D64308040400090406430803D4000903D64308040400090406430803D4000903D6430804040009040641880404000904064188040400090406418804040009040641880404000803D400090426400803C4000903C6460804240009042640090406400803C4000903C64608042400090426400803C4000903C6430903D643080404000804240009042640090406400803C4000903C6430803D4000903D6430803D4000804040008042400090426400803C4000903C6460804240009042640090406400803C4000903C64608042400090426400803C4000903C6430903D643080404000804240009042640090406400803C4000903C6430803D4000903D6430803D4000804040008042400090426400803C4000903C6460804240009042640090406400803C4000903C64608042400090426400803C4000903C6430903D643080404000804240009042640090406400803C4000903C6430803D4000903D6430803D4000804040008042400090426400803C4000903C6460804240009042640090406400803C4000903C64608042400090426400803C4000903C6430903D643080404000804240009042640090406400803C4000903C6430803D4000903D643080424000803D40008040400090426400803C4000903C6460804240009042640090406400803C4000903C64608042400090426400803C4000903C6430903D643080404000804240009042640090406400803C4000903C6430803D4000903D6430803D4000804240008040400090426400803C4000903C6460804240009042640090406400803C4000903C64608042400090426400803C4000903C6430903D643080404000804240009042640090406400803C4000903C6430803D4000903D6430803D4000804040008042400090426400803C4000903C6460804240009042640090406400803C4000903C64608042400090426400803C4000903C6430903D643080404000804240009042640090406400803C4000903C6430803D4000903D6430803D4000804040008042400090426400803C4000903C6460804240009042640090406400803C4000903C64608042400090426400803C4000903C6430903D643080404000804240009042640090406400803C4000903C6430803D4000903D643080424000803D40008040400090426400803C4000903C6460804240009042640090406400803C4000903C64608042400090426400803C4000903C6430903D643080404000804240009042640090406400803C4000903C6430803D4000903D6430803D4000804040008042400090426400803C4000903C6460804240009042640090406400803C4000903C64608042400090426400803C4000903C6430903D643080404000804240009042640090406400803C4000903C6430803D4000903D643080424000803D40008040400090426400803C4000903C6460804240009042640090406400803C4000903C64608042400090426400803C4000903C6430903D643080404000804240009042640090406400803C4000903C6430803D4000903D6430803D4000804040008042400090426400803C4000903C6460804240009042640090406400803C4000903C64608042400090426400803C4000903C6430903D643080404000804240009042640090406400803C4000903C6430803D4000903D643080424000803D40008040400090426400803C4000903C64008041400090416460804240009042640090406400803C4000903C64608042400090426400803C4000903C6430903D643080404000804240009042640090406400803C4000903C6430803D4000903D643080424000803D40008040400090426400803C4000903C6460804240009042640090406400803C4000903C64608042400090426400803C4000903C6430903D643080404000804240009042640090406400803C4000903C6430803D4000903D6430803D4000804240008040400090426400803C4000903C6460804240009042640090406400803C4000903C64608042400090426400803C4000903C6430903D643080404000804240009042640090406400803C4000903C6430803D4000903D643080424000803D40008040400090426400803C4000903C64608042400090426400803C4000903C643090406418804040009040641890436400803C4000903C64008041400090416430903D6430803C4000903C64008041400090416430803D4000903D64308040400080424000803D40008043400090426400803C4000903C64008041400090416460804240009042640090406400803C4000903C64608042400090426400803C4000903C6430903D643080404000804240009042640090406400803C4000903C6430803D4000903D6430803D4000804040008042400090426400803C4000903C6460804240009042640090406400803C4000903C64608042400090426400803C4000903C6430903D643080404000804240009042640090406400803C4000903C6430803D4000903D6430803D4000804240008040400090426400803C4000903C6460804240009042640090406400803C4000903C64608042400090426400803C4000903C6430903D643080404000804240009042640090406400803C4000903C6430803D4000903D643080424000803D40008040400090426400803C4000903C64608042400090426400803C4000903C643090406418804040009040641890436400803C4000903C64008041400090416430903D6430803C4000903C6430803D4000903D64308042400080404000803D40008043400090426400803C4000903C64008041400090416460804240009042640090406400803C4000903C64608042400090426400803C4000903C6430903D643080404000804240009042640090406400803C4000903C6430803D4000903D6430803D4000804040008042400090426400803C4000903C6460804240009042640090406400803C4000903C64608042400090426400803C4000903C6430903D643080404000804240009042640090406400803C4000903C6430803D4000903D643080424000803D40008040400090426400803C4000903C64008041400090416460804240009042640090406400803C4000903C64608042400090426400803C4000903C6430903D643080404000804240009042640090406400803C4000903C6430803D4000903D6430803D4000804240008040400090426400803C4000903C6460804240009042640090406430803C4000903C643080424000804040009042640090406430803C4000903C643080424000804040009042640090406430803C4000903C6430804240008040400090406430803C4000903C64308040400090406430803C4000903C64308040400090406430803C4000903C64308040400090406430803C4000903C6418803C4000903C64188040400090406430803C4000903C64308040400090406430803C4000903C64308040400090406430803C4000903C6430804040009040641880404000904064188040400090406418804040009040641880404000903E64008041400090416460803E4000903E6460803E4000903E6460803E4000903E6460803E4000903E6460803E4000903E6460803E4000903E6460803E4000903E6460803E4000903E6460803E4000903E6460803E4000903E6460803E4000903E6460803E4000903E6460803E4000903E6460803E4000903E6460803E4000903E6460803E4000903E6460803E4000903E6460803E4000903E6460803E4000903E6460803E4000903E6460803E4000903E6460803E4000903E6460803E4000903E6460803E4000903E6460803E4000903E6460803E4000903E6460803E4000903E6460803E4000903E6460803E4000903E6460803E4000903E6460803E4000903E6460803E4000903E6460803E4000903E6460803E4000903E6460803E4000903E6460803E4000903E6460803E4000903E6460803E4000903E6460803E4000903E6460803E4000903E6460803E4000903E6460803E4000903E6460803E4000903E6460803E4000903E648300803E400090406430903D6430803C4000903C64308040400090406418804040009040641880404000904064188040400090406448803C4000903C64008041400090416430803C4000903C6400804140009041642C90436400903C6404803C4000803C4000903C64008041400090416424803C40388043400090436430903C6418803C4000903C6418804340009043640090406430804040009040643080434000904364608043400090436404803D40008040405C8043400080404000904364009040643080404000904064308043400090436400803C4000903C6430803C4000903C6430804040008043400090436400904064188040400090406418803C4000903C6430804040008043400090406404804140009041642C903D64308040400090406430803D4000903D64308040400090406430803D4000903D64308040400090406430803D4000903D643080404000803D400090406430903D64308040400090406430803D4000903D64308040400090406430803D4000903D6430804040009040641880404000904064188040400090406418804040009040641880404000803D40048041400090416460804140009041648216803C4000903C6430903D643090406430903C6460803D4000903D64308040400090406400803C4000903C641880404000904064188040400090406418804040009040641880404000803D400A8041400090416460804140009041648215803C4000903C640B8041400090416425903D643090406430803C4000903C6460803D4000903D64308040400090406400803C4000903C641880404000904064188040400090406418804040009040641690426400803C4000903C640280404000803D400B8041400090416453804240009042640090406400803C4000903C64608042400090426400803C4000903C6430903D643080404000804240009042640090406400803C4000903C6430803D4000903D6430803D4000804040008042400090426400803C4000903C6460804240009042640090406400803C4000903C64608042400090426400803C4000903C6430903D643080404000804240009042640090406400803C4000903C6430803D4000903D6430803D4000804040008042400090426400803C4000903C6460804240009042640090406400803C4000903C64608042400090426400803C4000903C6430903D643080424000804040009042640090406400803C4000903C6430803D4000903D6430803D4000804240008040400090426400803C4000903C6460804240009042640090406400803C4000903C64608042400090426400803C4000903C6430903D643080404000804240009042640090406400803C4000903C6430803D4000903D64308042400080404000803D400090426400803C4000903C6460804240009042640090406400803C4000903C64608042400090426400803C4000903C6430903D643080404000804240009042640090406400803C4000903C6430803D4000903D643080424000803D40008040400090426400803C4000903C6460804240009042640090406400803C4000903C64608042400090426400803C4000903C6430903D643080404000804240009042640090406400803C4000903C6430803D4000903D6430803D4000804240008040400090426400803C4000903C6460804240009042640090406400803C4000903C64608042400090426400803C4000903C6430903D643080424000804040009042640090406400803C4000903C6430803D4000903D6430803D4000804240008040400090426400803C4000903C6460804240009042640090406400803C4000903C64608042400090426400803C4000903C642C903D643090406400803C4000903C64048040400080424014804040009040641880404000904064188040400090406418803D40008040400490426400803C4000903C640D8041400090416453804240009042640090406400803C4000903C64608042400090426400803C4000903C6430903D643080404000804240009042640090406400803C4000903C6430803D4000903D642B90426400803C4000903C6405803D4000804040008042405B804240009042640090406400803C4000903C64608042400090426400803C4000903C6430903D643080404000804240009042640090406400803C4000903C6430803D4000903D6430803D4000804040008042400090426400803C4000903C6460804240009042640090406400803C4000903C64608042400090426400803C4000903C6430903D643080404000804240009042640090406400803C4000903C6430803D4000903D641F90426400803C4000903C6411803D4000804040008042404F804240009042640090406400803C4000903C64608042400090426400803C4000903C6430903D643080404000804240009042640090406400803C4000903C6430803D4000903D6430803D4000804040008042400090426400803C4000903C6460804240009042640090406400803C4000903C64608042400090426400803C4000903C6430903D643080404000804240009042640090406400803C4000903C6430803D4000903D6430803D4000804040008042400090426400803C4000903C6460804240009042640090406400803C4000903C64608042400090426400803C4000903C6430903D643080404000804240009042640090406400803C4000903C6430803D4000903D6430803D4000804040008042400090426400803C4000903C6460804240009042640090406400803C4000903C64608042400090426400803C4000903C6430903D643080404000804240009042640090406400803C4000903C6430803D4000903D6430803D4000804040008042400090426400803C4000903C6460804240009042640090406400803C4000903C64608042400090426400803C4000903C6430903D643080404000804240009042640090406400803C4000903C6430803D4000903D64288041400090416408803D400080404000804240860680414000904164853D8041400090416430804140009041643080414000904164852080414000904164308041400090416430804140009041648600804140009041640990426400803C4000903C6460804240009042640090406400803C4000903C64608042400090426400803C4000903C6430903D643080404000804240009042640090406400803C4000903C6430803D4000903D6430803D4000804040008042400690426400803C4000903C6460804240009042640090406400803C4000903C64608042400090426400803C4000903C6430903D643080404000804240009042640090406400803C4000903C6430803D4000903D6430803D4000804040008042400890426400803C4000903C6460804240009042640090406400803C4000903C64608042400090426400803C4000903C6430903D643080404000804240009042640090406400803C4000903C6430803D4000903D6430803D4000804240008040400790426400803C4000903C6460804240009042640090406400803C4000903C64608042400090426400803C4000903C6430903D643080404000804240009042640090406400803C4000903C6430803D4000903D6430803D4000804040008042400A90426400803C4000903C64088041400090416458804240009042640090406400803C4000903C64608042400090426400803C4000903C6430903D643080404000804240009042640090406400803C4000903C6430803D4000903D642D90426400803C4000903C6403803D4000804040008042405D804240009042640090406400803C4000903C64608042400090426400803C4000903C6430903D643080404000804240009042640090406400803C4000903C6430803D4000903D6430803D4000804040008042400590426400803C4000903C6460804240009042640090406400803C4000903C64608042400090426400803C4000903C6430903D643080404000804240009042640090406400803C4000903C6430803D4000903D643080424000803D40008040400A90426400803C4000903C64608042400090426400803C4000903C64309040641880404000904064148041400090416404803C400090436400803C4000903C6430903D642C8041400090416404803C4000903C6430803D4000903D642B90426400803C4000903C64018041400090416404804240008040400080434000803D405B804240009042640090406400803C4000903C64608042400090426400803C4000903C6430903D643080404000804240009042640090406400803C4000903C6430803D4000903D642C90426400803C4000903C6404803D4000804040008042405C804240009042640090406400803C4000903C64608042400090426400803C4000903C6430903D643080404000804240009042640090406400803C4000903C6430803D4000903D642B90426400803C4000903C6405803D4000804040008042405B804240009042640090406400803C4000903C64608042400090426400803C4000903C6430903D643080404000804240009042640090406400803C4000903C6430803D4000903D6430803D4000804040008042400390426400803C4000903C64608042400090426400803C4000903C6430904064188040400090406417804140009041640190436400803C4000903C6430903D6430803C4000903C6430803D4000903D6430804240008040400080434000803D400290426400803C4000903C6405804140009041645B804240009042640090406400803C4000903C64608042400090426400803C4000903C6430903D643080404000804240009042640090406400803C4000903C6430803D4000903D642F90426400803C4000903C640180424000803D40008040405F804240009042640090406400803C4000903C64608042400090426400803C4000903C6430903D643080404000804240009042640090406400803C4000903C6430803D4000903D642F90426400803C4000903C6401803D400080404000804240068041400090416459804240009042640090406400803C4000903C64608042400090426400803C4000903C6430903D643080404000804240009042640090406400803C4000903C6430803D4000903D6430803D4000804040008042400590426400803C4000903C6460804240009042640090406430803C4000903C643080404000804240009042640090406430803C4000903C643080424000804040009042640090406430803C4000903C6430804040008042400190406430803C4000903C64308040400090406430803C4000903C64308040400090406430803C4000903C64308040400090406430803C4000903C6418803C4000903C64188040400090406430803C4000903C64308040400090406430803C4000903C64308040400090406430803C4000903C64308040400090406418804040009040641880404000904064188040400090406411903E6407804040018041400090416458803E4000903E6460803E4000903E6460803E4000903E6454903E640C803E4054803E4000903E6460803E4000903E6460803E4000903E6458903E6408803E4058803E4000903E6460803E4000903E6460803E4000903E645B903E6405803E405B803E4000903E6460803E4000903E6460803E4000903E6451804140009041640A903E6405803E405B803E4000903E6460803E4000903E6460803E4000903E6460803E4000903E6460803E4000903E6460803E4000903E6460803E4000903E64268041400090416430903E640A803E4056803E4000903E6460803E4000903E6460803E4000903E6460803E4000903E6460803E4000903E6460803E4000903E6460803E4000903E6421804140009041643F803E4000903E6460803E4000903E6460803E4000903E6460803E4000903E6451903E640F803E4051803E4000903E6460803E4000903E6460803E4000903E64258041400090416431903E640A803E4056803E4000903E6460803E4000903E6460803E4000903E645B903E6405803E405B803E4000903E6460803E4000903E6460803E4000903E641E8041400090416438903E640A803E4056803E4000903E6460803E4000903E6460803E4000903E6460803E4082CA18B0650000B0640000B0060C00B00A4000B0076400E0004000803C400080414002B0650000B0640000B0060C00B00A4000B0076400E0004000B0650000B0640000B0060C00B00A4000B0076400E0004000FF2F004D54726B00000C8000FF03064576656E747300B90A4000B9076400E9004000B9650000B9640000B9060C00B90A4000B9076400E9004000B9650000B9640000B9060C00B90A4000B9076400E9004000B9650000B9640000B9060C00B90A4000B9076400E9004000991A648300991D648600991E648300891E4000991E648300891E4000991E648300891E4000991E648300891E4000991E648140891E4000991E648140891E4000991E648140891E4000991E648140891D4000891E4000991D648900891D4000991D64A100891D4000991D649800891D4000991E648220891E4000991E6460891E4000991E648220891E4000991E6460891E4000991E648220891E4000991E6460891E4000991E648220891E4000991E6460891E4000991E6460891E4000991E6460891E4000991E6460891E4000991E6460891E4000991E6460891E4000991E6460891E4000991E6460891E4000991E6460891E4000991E6460891E4000991E6460891E4000991E6460891E4000991E6460891E4000991E6460891E4000991E6460891E4000991E6460891E4000991E6460891E4000991D648600891D4000991D649200891D4000991D649800891D4000991E648220891E4000991E6460891E4000991E648220891E4000991E6460891E4000991E648220891E4000991E6460891E4000991E648220891E4000991E6460891E4000991E6460891E4000991E6460891E4000991E6460891E4000991E6460891E4000991E6460891E4000991E6460891E4000991E6460891E4000991E6460891E4000991E6460891E4000991E6460891E4000991E6460891E4000991E6460891E4000991E6460891E4000991E6460891E4000991E6460891E4000991E6460891E4000991E648900891E40009920648140991E648440891E408140991E648440891E408140991E648440891E408140991E648440891E408140991E648440891E4000991E64854C89204034891E4000991C648740891C4000991C648740891C4000991C648740891C4000991C648740891C4000991C648740891C4000991C648740891C40A228991B6418891B4018991B6418891B4018991B6418891B4018991B6418891B4030991B6448891B4018991B648300891B4030991B6418891B4018991B6418891B400C991B6418891B4024991B6418891B4018991B6418891B4018991B648220891B4030991B6430891B408300991B6430891B4018991B6448891B4018991B6424891B400C991B6448891B4024991B646C891B4048991B6418891B4018991B6424891B400C991B6448891B4018991B648458891B408170991B6448891B4018991B648300891B4060991B6418891B4018991B6418891B4018991B6448891B4018991B648238891B4018991B6430891B408170991B6418891B4018991B6418891B4018991B6418891B4018991B6448891B4018991B6448891B4018991B6430891B4018991B6418891B4024991B648104891B4030991B6418891B4018991B6448891B4018991B6418891B4018991B6418891B4018991B64811C891B400C991B648170891B408110991B6418891B4018991B6418891B400C991B6418891B4018991B6454891B400C991B6424891B400C991B6430891B4024991B648428891B408C00991B6418891B400C991B6424891B400C991B6448891B400C991B6418891B4018991B6460891B4018991B6418891B4018991B6418891B4030991B6448891B4018991B648140891B4078991B6418891B4018991B6430891B4018991B6430891B4030991B6418891B4018991B6448891B4018991B6430891B4018991B6430891B4030991B6478891B4018991B6418891B4018991B6418891B4018991B6418891B4018991B6418891B4018991B6418891B4018991B6454891B400C991B6418891B4018991B6418891B4030991B643C891B400C991B6430891B4030991B648110891B4030991B6418891B4018991B6418891B4018991B6418891B4024991B6418891B4024991B6418891B4030991B6448891B4018991B648330891B4060991B648410891B4078991B6418891B4018991B6418891B4018991B6418891B4018991B6418891B4024991B6448891B4024991B6448891B408140991B6418891B4018991B6418891B4018991B6418891B4024991B6418891B4024991B6460891B4030991B648470891B409310991B643C891B4018991B6418891B4018991B6418891B4018991B6430891B4018991B648274891B408140991B6418891B4018991B6418891B4018991B6418891B4018991B6460891B4018991B648238891B408140991B6418891B4018991B6418891B4018991B6418891B4018991B648164891B400C991B6418891B4018991B6418891B4018991B6418891B4018991B648128891B4018991B6418891B4018991B6418891B4018991B6448891B400C991B646C891B400C991B648324891B408220991B6454891B400C991B648300891B4060991B643C891B4018991B6424891B400C991B6478891B4018991B648170891B400C991B6460891B408208991B6424891B4024991B6448891B4018991B6418891B4018991B6454891B400C991B6424891B4024991B648128891B4024991B6418891B4024991B6418891B4018991B6418891B4018991B6418891B4018991B648140891B4030991B648140891B4078991B6424891B4024991B643C891B4018991B6424891B4018991B6418891B4018991B6460891B4030991B648470891B408B20991B6418891B400C991B6424891B400C991B6448891B400C991B6418891B4018991B6460891B4018991B6418891B4018991B6418891B4030991B6448891B4018991B648140891B4078991B6418891B4018991B6430891B4018991B6430891B4030991B6418891B4018991B6448891B4018991B6430891B4018991B6430891B4030991B6478891B4018991B6418891B4018991B6418891B4018991B6418891B4018991B6418891B4018991B6418891B4018991B6454891B400C991B6418891B4018991B6418891B4030991B643C891B400C991B6430891B4030991B648110891B4030991B6418891B4018991B6418891B4018991B6418891B4024991B6418891B4024991B6418891B4030991B6448891B4018991B648330891B403C991B648410891B40811C991B6418891B4018991B6418891B4018991B6418891B4018991B6418891B4024991B6448891B4024991B6448891B408140991B6418891B4018991B6418891B4018991B6418891B4024991B6418891B4024991B6460891B4018991B648208891B40D240991B6424891B400C991B6418891B4018991B6418891B4018991B6418891B4018991B648110891B400C991B648214891B4060991B6418891B4030991B6418891B4018991B6418891B4018991B6418891B400C991B6418891B400C991B648250891B4018991B648208891B40811C991B6454891B4024991B6430891B4024991B6424891B4024991B6424891B4024991B6478891B4054991B6418891B4024991B6418891B4018991B6424891B403C991B648520891B4030991B6418891B400C991B6418891B4018991B6460891B400C991B648300891B4030991B6418891B4018991B6430891B4018991B6424891B400C991B6418891B4018991B6460891B4018991B6460891B408110991B6460891B408134991B640C891B4018991B640C891B4018991B640C891B4030991B6448891B4018991B6448891B4018991B6448891B4018991B6418891B4018991B648128891B4030991B6418891B4018991B6418891B4018991B6418891B4018991B6448891B4018991B648128891B4018991B648110891B408140991B6424891B400C991B643C891B4024991B6418891B4018991B648128891B4018991B648470891B408A7C991B6418891B400C991B6424891B400C991B6448891B400C991B6418891B4018991B6460891B4018991B6418891B4018991B6418891B4030991B6448891B400C991B648140891B4078991B6448891B400C991B6418891B4018991B6460891B4018991B64817C891B4018991B6418891B4018991B6430891B400C991B6478891B400C991B6448891B400C991B6418891B4018991B6460891B408214991B6418891B4018991B6448891B4018991B6418891B4018991B646C891B40817C991B648140891B408208991B6418991F6430891B4018991B6418891B4018991B6460891B408378991B6448891B4018991B6418891B400C991B6460891B40841C991B6448891B4018991B6418891B400C991B6460891B408378991B6448891B4018991B6418891B4018991B6448891B408428991B6448891B4018991B6418891B4018991B6448891B40817C891F409034891A4082A13CB9650000B9640000B9060C00B90A4000B9076400E9004002B9650000B9640000B9060C00B90A4000B9076400E9004000B9650000B9640000B9060C00B90A4000B9076400E9004000FF2F004D54726B0000001100FF03094241535320536C617000FF2F004D54726B0000001100FF0309536C6179657220233200FF2F004D54726B0000001500FF030D72654658204E6578757320233200FF2F00]]